<svg xmlns="http://www.w3.org/2000/svg" viewBox="0 0 554.83 464.25"><title>Web - Intro copy 2</title><g id="Layer_4" data-name="Layer 4"><path d="M499.77,330.27C485.83,394.53,447.6,429.49,399.46,445c-25.63,8.27-54,11-83.1,9.75h0a351.31,351.31,0,0,1-39.63-4.06,441.58,441.58,0,0,1-91-24.94c-31.09-12.17-58.29-26.86-77.86-41.51-91.6-68.53-118.4-291-14.37-343.52S284.78,51.3,326,122.87,541.41,138.25,499.77,330.27Z" style="fill:#eef8f7"/><line x1="27.59" y1="277.83" x2="20.94" y2="275.76" style="fill:none;stroke:#8cd1cb;stroke-linecap:round;stroke-miterlimit:10;stroke-width:2.49716479479448px"/><line x1="109.7" y1="303.4" x2="35.99" y2="280.45" style="fill:none;stroke:#8cd1cb;stroke-linecap:round;stroke-miterlimit:10;stroke-width:2.49716479479448px"/><polyline points="470.61 415.79 155.91 317.79 118.56 306.16" style="fill:none;stroke:#8cd1cb;stroke-linecap:round;stroke-miterlimit:10;stroke-width:2.49716479479448px"/><path d="M327.4,454.76h0a404.6,404.6,0,0,1-45.63-4.68A507.92,507.92,0,0,1,177,421.36c10-45.8,48.56-87.89,90.54-87.89C307,333.47,318.13,411.59,327.4,454.76Z" style="fill:#23baaa"/><rect x="117.39" y="9.72" width="2.56" height="139.54" rx="1.28" ry="1.28" style="fill:#b3e1e5"/><path d="M154.91,177H82.44c0-17.22,16.22-31.18,36.23-31.18S154.91,159.73,154.91,177Z" style="fill:#b3e1e5"/><ellipse cx="118.67" cy="176.82" rx="36.23" ry="3.31" style="fill:#8cd1cb"/><path d="M182.9,175.57c29.27-20.79,15-64.26,72.83-74.28l1.16-.17a35.45,35.45,0,0,1,9.9-5c12.48-3.85,33.13-14.3,38.76-9.12,4.29,4,1.43,7.45,1.38,10.26a17.43,17.43,0,0,1,5.51,3.34c8.28,7.77,14.11,15.07,13.54,38.1a10.19,10.19,0,0,1-2.17,6.29c10.1,32.45-7.35,67.1-39.46,77.85-11.35,3.8-54.06,9.83-64.37,24.38s-4.24,39.89-19,44.82-38.37-14.72-46.6-44.62C150.37,232.75,145.36,202.24,182.9,175.57Z" style="fill:#282461"/><path d="M303,141.43c3.68,12.25,2.89,36.87-1.2,46.34-6.62,15.35-10.91,18.07-23.6,23.93.67,5.8-.35,10.73,3.24,16.67s12,12.27,18,16.5c-5.44,20.32-17.33,52.54-22.91,72.85-19.12-23.28-37.67-56.59-56.29-79.11,8.87-3.37,15.66-2.4,22.65-11.88s4.89-30.93,0-42.74c-3.46.16-4.86,2.49-9,1.83s-7-5.91-8-10.45-2.35-11.6.91-15.37,7.15-2.54,10.73-.73.56,14.41,7.37,11.54c4.06-1.7,5.38-19.39,11.79-25.37C272.18,143.39,287.72,143.09,303,141.43Z" style="fill:#6e6ea5"/><path d="M325.9,148.88s-11,11.19-39.52,4.57-63.56-17.68-74.7-24.86c-6.46-3.24,10.88-17.38,14-16.19,6,2.27,44.5,17.69,61.94,20.18s30.56,5.24,37.05,4.55S325.9,148.88,325.9,148.88Z" style="fill:#f8f5ed"/><path d="M356.45,375.4C350.7,392.67,343.79,395,332.27,395s-116.3-23-116.3-23l-17.22,36.88s-24.23,2.27-36.9,2.27-24.18-8.06-31.09-29.94,15-43.75,25.33-56.42,28.79-56.42,38-66.79,21.88-16.12,30.81-16.8c16.24,5.82,38.13,29,45.92,34.79a12.13,12.13,0,0,0,1.22.83c.86.53,1.41.66,1.6.31h0c.29-.54.56-1.07.84-1.58,0,0,0,0,0,0,8.49-16,11-18.26,15.18-38.25,0,0,24.18,13.81,31.09,20.72s15,13.82,18.42,34.55S362.21,358.12,356.45,375.4Z" style="fill:#23baaa"/><path d="M289.67,237.21s2.3-2.3,8.06,0,6.1,12.33,5.93,30.35c-.09,9-8.4,43.79-20.18,76.46-11.87,32.89-31.81,61.31-31.81,61.31l-8.06-8.06s16.68-29.63,28.55-60.49c11.33-29.47,17.88-60.06,18.14-67C290.82,255.64,289.67,237.21,289.67,237.21Z" style="fill:#e8e6e2"/><path d="M204.48,375.38a26.65,26.65,0,0,0-12.68-8.09l-1.81-.45a18.64,18.64,0,0,0-1.84-.34c-1.24-.28-2.51-.29-3.79-.46-.64-.11-1.29,0-1.94-.1l-2-.1c-1.32,0-2.65,0-4-.07a37.67,37.67,0,0,1,3.83-1.52,39.5,39.5,0,0,1,4.07-.78,22.76,22.76,0,0,1,4.21,0,16.85,16.85,0,0,1,2.11.25l2.08.48a18.77,18.77,0,0,1,7.43,4.15A14.19,14.19,0,0,1,204.48,375.38Z" style="fill:#00a08d"/><path d="M203.59,370.31c-13.65,12.79-18.45,27.61-18.71,43.47a3.2,3.2,0,0,0,3,3.26c35.65,2.07,69.73-3.92,102.05-18.86a8.88,8.88,0,0,0,5.13-7c1.16-10.07-.42-19.55-6.09-28.16a6.94,6.94,0,0,0-7-3q-40.62,6.94-73.84,8.37A7.13,7.13,0,0,0,203.59,370.31Z" style="fill:#f8f5ed"/><path d="M288.52,362.73c9.21-2.31,12.67-5.76,18.42-6.91s17.28,6.91,19.58,16.12,0,21.88-5.76,26.48-12.66,1.15-15-4.6S292,391.51,292,391.51,279.31,365,288.52,362.73Z" style="fill:#6e6ea5"/><path d="M185.24,363.55c4.11-3.85,8.09-8,11.88-12.22A163.06,163.06,0,0,0,207.82,338q2.49-3.48,4.67-7.14a63.87,63.87,0,0,0,3.93-7.57,41.27,41.27,0,0,0,2.65-8.1,21.34,21.34,0,0,0,.16-8.5,21.5,21.5,0,0,1,.24,8.57,41.28,41.28,0,0,1-2.29,8.33,66.64,66.64,0,0,1-3.62,7.87c-1.36,2.54-2.82,5-4.39,7.45a160.5,160.5,0,0,1-10.19,14c-3.64,4.49-7.41,8.81-11.48,13a1.63,1.63,0,0,1-2.34-2.28l.05-.05Z" style="fill:#00a08d"/><path d="M236.88,232.75c-1.34-2.15-10.54-1.29-15.15,5.61s-10.36,39.15-11.51,67.94,4.6,62.18,10.36,77.15S233.25,415.69,236.7,418s9.21-1.16,12.67-3.46-12.67-26.48-17.27-42.6-10.37-35.7-9.21-53,2.3-32.24,6.9-51.82S240,237.74,236.88,232.75Z" style="fill:#e8e6e2"/><path d="M273.64,277.07c-.89,3.33-4.38,14-15.55,28.88a.81.81,0,0,1-.65.33.81.81,0,0,1-.66-1.31c10.8-14.43,14.34-24.91,15.26-28.21C272.9,277.29,273.45,277.42,273.64,277.07Z" style="fill:#00a08d"/><circle cx="269.56" cy="297.81" r="1.57" style="fill:#00a08d"/><circle cx="276.13" cy="287.42" r="1.57" style="fill:#00a08d"/><path d="M451.83,315.1c14.67,22.95,33.7,58.12,33.7,58.12s-58-41.42-72.14-55S366,274.54,372.17,267.81c6.89-7.48,30.87,4.24,49.8,17.08A105.12,105.12,0,0,1,451.83,315.1Z" style="fill:#b3e1e5;fill-rule:evenodd"/><path d="M487.92,374.29c-43.1-34.73-50.66-84.89-115.45-106.07" style="fill:none;stroke:#fff;stroke-linecap:round;stroke-linejoin:round;stroke-width:3.55985224246979px;fill-rule:evenodd"/><path d="M468.41,244.59c20.45,55.36,18,128.39,18,128.39,1.07-1.46-48.28-89.37-63.54-111.31-16-23.06-51.75-80.9-33.63-91.13S459.05,219.27,468.41,244.59Z" style="fill:#b3e1e5;fill-rule:evenodd"/><path d="M488,374.7c-14.12-80.5-55.21-172.89-98.4-203.81" style="fill:none;stroke:#fff;stroke-linecap:round;stroke-linejoin:round;stroke-width:3.55985224246979px;fill-rule:evenodd"/><path d="M464.89,357.92a171.29,171.29,0,0,1,23.22,18.65s-26.37-8.45-47.56-9a194.39,194.39,0,0,1-25.26-2.1c-12.38-2-25-5.08-22-11,2-3.9,10-6.13,19.39-7.2C432.67,345,451.4,349,464.89,357.92Z" style="fill:#b3e1e5;fill-rule:evenodd"/><path d="M489.23,376.49c-27.8-17.09-69.77-28.28-95.71-22.06" style="fill:none;stroke:#fff;stroke-linecap:round;stroke-linejoin:round;stroke-width:3.55985224246979px;fill-rule:evenodd"/><path d="M477.17,269.18C465.35,310,491.72,371,491.72,371s14.14-77.39,21.08-101.68,32.86-81.88,15.54-83.11S483.25,243.23,477.17,269.18Z" style="fill:#e5f4f7;fill-rule:evenodd"/><path d="M490.46,373.66c-9.86-77.94,4.25-138.27,38.46-187.51" style="fill:none;stroke:#fff;stroke-linecap:round;stroke-linejoin:round;stroke-width:3.55985224246979px;fill-rule:evenodd"/><path d="M496.31,295.12c-4.61,27.34-6.46,54.09-7.81,80.07,11.95-20.5,37.3-58.34,43-75.81s32.92-63.39,12.37-72S498.68,283.25,496.31,295.12Z" style="fill:#b3e1e5;fill-rule:evenodd"/><path d="M486.42,377.6c14.72-47.48,23.25-97.7,59.14-152.21" style="fill:none;stroke:#fff;stroke-linecap:round;stroke-linejoin:round;stroke-width:3.55985224246979px;fill-rule:evenodd"/><path d="M498.43,338.17c-2.85,12.57-6.38,24.79-9.62,36.52,9.86-13.89,17.08-24.74,29.1-38,4.88-5.36,14-14.79,20.21-22s16.5-20.43,1.82-24C516.11,288.75,501.28,325.6,498.43,338.17Z" style="fill:#e5f4f7;fill-rule:evenodd"/><path d="M487.83,375.25c10.09-22.85,30.38-66.48,52.32-84.89" style="fill:none;stroke:#fff;stroke-linecap:round;stroke-linejoin:round;stroke-width:3.55985224246979px;fill-rule:evenodd"/></g></svg>