<?xml version="1.0" encoding="UTF-8"?>
<svg width="1452px" height="431px" viewBox="0 0 1452 431" version="1.1" xmlns="http://www.w3.org/2000/svg" xmlns:xlink="http://www.w3.org/1999/xlink">
    <!-- Generator: Sketch 51.2 (57519) - http://www.bohemiancoding.com/sketch -->
    <title>Appstore</title>
    <desc>Created with Sketch.</desc>
    <defs>
        <rect id="path-1" x="0" y="0" width="1452" height="431" rx="40"></rect>
    </defs>
    <g id="Page-1" stroke="none" stroke-width="1" fill="none" fill-rule="evenodd">
        <g id="App-Store-Badges" transform="translate(-474.000000, -994.000000)">
            <g id="Appstore" transform="translate(474.000000, 994.000000)">
                <g id="backfround-copy" stroke-linejoin="square">
                    <rect stroke="#A6A6A6" stroke-width="10" fill="#000000" fill-rule="evenodd" x="5" y="5" width="1442" height="421" rx="40"></rect>
                    <rect stroke="#8F8F8F" stroke-width="5" x="2.5" y="2.5" width="1447" height="426" rx="40"></rect>
                </g>
                <path d="M557.331055,331 L581.735352,331 L528.3125,183.036133 L503.600586,183.036133 L450.177734,331 L473.761719,331 L487.399414,291.727539 L543.795898,291.727539 L557.331055,331 Z M514.777344,209.901367 L516.520508,209.901367 L537.951172,272.450195 L493.244141,272.450195 L514.777344,209.901367 Z M646.44375,217.489258 C631.267969,217.489258 618.142969,225.077148 611.375391,237.791992 L609.734766,237.791992 L609.734766,219.334961 L588.50918,219.334961 L588.50918,367.196289 L610.555079,367.196289 L610.555079,314.081055 L612.298243,314.081055 C618.142969,325.873047 630.755274,332.845703 646.648829,332.845703 C674.847071,332.845703 692.791407,310.594727 692.791407,275.116211 C692.791407,239.637695 674.847071,217.489258 646.44375,217.489258 L646.44375,217.489258 Z M640.188868,313.055664 C621.731836,313.055664 610.144922,298.495117 610.144922,275.21875 C610.144922,251.839844 621.731836,237.279297 640.291407,237.279297 C658.953516,237.279297 670.130274,251.532227 670.130274,275.116211 C670.130274,298.802734 658.953516,313.055664 640.188868,313.055664 L640.188868,313.055664 Z M760.781055,217.489258 C745.605274,217.489258 732.480274,225.077148 725.712696,237.791992 L724.072071,237.791992 L724.072071,219.334961 L702.846485,219.334961 L702.846485,367.196289 L724.892384,367.196289 L724.892384,314.081055 L726.635548,314.081055 C732.480274,325.873047 745.092579,332.845703 760.986134,332.845703 C789.184376,332.845703 807.128712,310.594727 807.128712,275.116211 C807.128712,239.637695 789.184376,217.489258 760.781055,217.489258 L760.781055,217.489258 Z M754.526173,313.055664 C736.069141,313.055664 724.482227,298.495117 724.482227,275.21875 C724.482227,251.839844 736.069141,237.279297 754.628712,237.279297 C773.290821,237.279297 784.467579,251.532227 784.467579,275.116211 C784.467579,298.802734 773.290821,313.055664 754.526173,313.055664 L754.526173,313.055664 Z M853.796486,291.214844 C855.437111,317.669922 877.483009,334.588867 910.295509,334.588867 C945.363869,334.588867 967.307228,316.849609 967.307228,288.548828 C967.307228,266.297852 954.797462,253.993164 924.4459,246.917969 L908.142189,242.918945 C888.864845,238.407227 881.071877,232.357422 881.071877,221.795898 C881.071877,208.46582 893.171486,199.75 911.3209,199.75 C928.547462,199.75 940.441994,208.260742 942.595314,221.898438 L964.94883,221.898438 C963.615822,196.981445 941.672462,179.447266 911.628517,179.447266 C879.328712,179.447266 857.795509,196.981445 857.795509,223.333984 C857.795509,245.072266 869.997658,257.992188 896.760353,264.24707 L915.832619,268.861328 C935.41758,273.475586 944.030861,280.243164 944.030861,291.522461 C944.030861,304.647461 930.495705,314.183594 912.038673,314.183594 C892.248634,314.183594 878.5084,305.262695 876.560158,291.214844 L853.796486,291.214844 Z M986.283205,192.264648 L986.283205,219.847656 L967.928713,219.847656 L967.928713,238.407227 L986.283205,238.407227 L986.283205,301.46875 C986.283205,323.001953 996.024416,331.615234 1020.53125,331.615234 C1024.83789,331.615234 1028.83692,331.102539 1032.32324,330.487305 L1032.32324,312.132812 C1029.24707,312.44043 1027.50391,312.645508 1024.12012,312.645508 C1013.14844,312.645508 1008.3291,307.518555 1008.3291,295.829102 L1008.3291,238.407227 L1033.34863,238.407227 L1033.34863,219.847656 L1008.3291,219.847656 L1008.3291,192.264648 L986.283205,192.264648 Z M1088.00821,313.568359 C1068.8334,313.568359 1058.0668,299.520508 1058.0668,275.116211 C1058.0668,250.916992 1068.8334,236.766602 1088.00821,236.766602 C1107.08047,236.766602 1117.94961,250.916992 1117.94961,275.116211 C1117.94961,299.417969 1107.08047,313.568359 1088.00821,313.568359 L1088.00821,313.568359 Z M1088.00821,333.15332 C1120.61563,333.15332 1140.61074,311.3125 1140.61074,275.116211 C1140.61074,239.125 1120.51309,217.181641 1088.00821,217.181641 C1055.40078,217.181641 1035.30313,239.125 1035.30313,275.116211 C1035.30313,311.3125 1055.29824,333.15332 1088.00821,333.15332 L1088.00821,333.15332 Z M1150.66582,331 L1172.71172,331 L1172.71172,265.067383 C1172.71172,249.378906 1184.50371,238.817383 1201.11504,238.817383 C1204.80645,238.817383 1211.57403,239.535156 1213.31719,240.150391 L1213.31719,218.412109 C1210.95879,217.796875 1206.75469,217.489258 1203.57598,217.489258 C1189.01543,217.489258 1176.71074,225.487305 1173.53203,236.458984 L1171.89141,236.458984 L1171.89141,219.334961 L1150.66582,219.334961 L1150.66582,331 Z M1262.95235,235.946289 C1279.25606,235.946289 1289.92012,247.328125 1290.43282,264.862305 L1234.03633,264.862305 C1235.2668,247.430664 1246.64864,235.946289 1262.95235,235.946289 L1262.95235,235.946289 Z M1290.33028,300.853516 C1286.22871,309.569336 1277.10274,314.388672 1263.77266,314.388672 C1246.13594,314.388672 1234.7541,301.981445 1234.03633,282.396484 L1234.03633,281.166016 L1312.88887,281.166016 L1312.88887,273.475586 C1312.88887,238.407227 1294.12422,217.181641 1263.05489,217.181641 C1231.57539,217.181641 1211.58028,239.842773 1211.58028,275.526367 C1211.58028,311.209961 1231.16524,333.15332 1263.15742,333.15332 C1288.68965,333.15332 1306.53145,320.848633 1311.55586,300.853516 L1290.33028,300.853516 Z" id="App-Store" fill="#FFFFFF"></path>
                <path d="M470.837891,67.5410156 L470.837891,138 L496.277344,138 C517.273438,138 529.431641,125.060547 529.431641,102.550781 C529.431641,80.3828125 517.175781,67.5410156 496.277344,67.5410156 L470.837891,67.5410156 Z M481.775391,77.5019531 L495.056641,77.5019531 C509.65625,77.5019531 518.298828,86.7792969 518.298828,102.697266 C518.298828,118.859375 509.802734,128.039062 495.056641,128.039062 L481.775391,128.039062 L481.775391,77.5019531 Z M567.917969,129.699219 C558.787109,129.699219 553.660156,123.009766 553.660156,111.388672 C553.660156,99.8652344 558.787109,93.1269531 567.917969,93.1269531 C577,93.1269531 582.175781,99.8652344 582.175781,111.388672 C582.175781,122.960938 577,129.699219 567.917969,129.699219 L567.917969,129.699219 Z M567.917969,139.025391 C583.445312,139.025391 592.966797,128.625 592.966797,111.388672 C592.966797,94.25 583.396484,83.8007812 567.917969,83.8007812 C552.390625,83.8007812 542.820312,94.25 542.820312,111.388672 C542.820312,128.625 552.341797,139.025391 567.917969,139.025391 L567.917969,139.025391 Z M675.251953,84.8261719 L664.753906,84.8261719 L655.28125,125.402344 L654.451172,125.402344 L643.513672,84.8261719 L633.455078,84.8261719 L622.517578,125.402344 L621.736328,125.402344 L612.214844,84.8261719 L601.570312,84.8261719 L616.21875,138 L627.009766,138 L637.947266,98.8398438 L638.777344,98.8398438 L649.763672,138 L660.652344,138 L675.251953,84.8261719 Z M688.591797,138 L699.089844,138 L699.089844,106.896484 C699.089844,98.5957031 704.265625,93.4199219 712.712891,93.4199219 C720.525391,93.4199219 724.333984,97.6679688 724.333984,106.212891 L724.333984,138 L734.832031,138 L734.832031,103.576172 C734.832031,90.9296875 728.142578,83.8007812 716.277344,83.8007812 C708.269531,83.8007812 702.068359,87.3652344 699.480469,93.2734375 L698.699219,93.2734375 L698.699219,84.8261719 L688.591797,84.8261719 L688.591797,138 Z M752.566406,138 L763.064453,138 L763.064453,64.0742188 L752.566406,64.0742188 L752.566406,138 Z M803.748047,129.699219 C794.617188,129.699219 789.490234,123.009766 789.490234,111.388672 C789.490234,99.8652344 794.617188,93.1269531 803.748047,93.1269531 C812.830078,93.1269531 818.005859,99.8652344 818.005859,111.388672 C818.005859,122.960938 812.830078,129.699219 803.748047,129.699219 L803.748047,129.699219 Z M803.748047,139.025391 C819.275391,139.025391 828.796875,128.625 828.796875,111.388672 C828.796875,94.25 819.226562,83.8007812 803.748047,83.8007812 C788.220703,83.8007812 778.650391,94.25 778.650391,111.388672 C778.650391,128.625 788.171875,139.025391 803.748047,139.025391 L803.748047,139.025391 Z M861.277344,130.041016 C855.564453,130.041016 851.414062,127.257812 851.414062,122.472656 C851.414062,117.785156 854.734375,115.294922 862.058594,114.806641 L875.046875,113.976562 L875.046875,118.419922 C875.046875,125.011719 869.1875,130.041016 861.277344,130.041016 L861.277344,130.041016 Z M858.591797,138.878906 C865.574219,138.878906 871.384766,135.851562 874.558594,130.529297 L875.388672,130.529297 L875.388672,138 L885.496094,138 L885.496094,101.671875 C885.496094,90.4414062 877.976562,83.8007812 864.646484,83.8007812 C852.585938,83.8007812 843.992188,89.6601562 842.917969,98.7910156 L853.074219,98.7910156 C854.246094,95.03125 858.298828,92.8828125 864.158203,92.8828125 C871.335938,92.8828125 875.046875,96.0566406 875.046875,101.671875 L875.046875,106.261719 L860.642578,107.091797 C847.996094,107.873047 840.867188,113.390625 840.867188,122.960938 C840.867188,132.677734 848.337891,138.878906 858.591797,138.878906 L858.591797,138.878906 Z M922.371094,138.878906 C929.695312,138.878906 935.896484,135.412109 939.070312,129.601562 L939.900391,129.601562 L939.900391,138 L949.958984,138 L949.958984,64.0742188 L939.460938,64.0742188 L939.460938,93.2734375 L938.679688,93.2734375 C935.798828,87.4140625 929.646484,83.9472656 922.371094,83.9472656 C908.943359,83.9472656 900.300781,94.5917969 900.300781,111.388672 C900.300781,128.234375 908.845703,138.878906 922.371094,138.878906 L922.371094,138.878906 Z M925.349609,93.3710938 C934.138672,93.3710938 939.65625,100.353516 939.65625,111.4375 C939.65625,122.570312 934.1875,129.455078 925.349609,129.455078 C916.462891,129.455078 911.140625,122.667969 911.140625,111.388672 C911.140625,100.207031 916.511719,93.3710938 925.349609,93.3710938 L925.349609,93.3710938 Z M1020.48633,129.699219 C1011.35547,129.699219 1006.22852,123.009766 1006.22852,111.388672 C1006.22852,99.8652344 1011.35547,93.1269531 1020.48633,93.1269531 C1029.56836,93.1269531 1034.74414,99.8652344 1034.74414,111.388672 C1034.74414,122.960938 1029.56836,129.699219 1020.48633,129.699219 L1020.48633,129.699219 Z M1020.48633,139.025391 C1036.01367,139.025391 1045.53516,128.625 1045.53516,111.388672 C1045.53516,94.25 1035.96484,83.8007812 1020.48633,83.8007812 C1004.95898,83.8007812 995.388672,94.25 995.388672,111.388672 C995.388672,128.625 1004.91016,139.025391 1020.48633,139.025391 L1020.48633,139.025391 Z M1060.63281,138 L1071.13086,138 L1071.13086,106.896484 C1071.13086,98.5957031 1076.30664,93.4199219 1084.75391,93.4199219 C1092.56641,93.4199219 1096.375,97.6679688 1096.375,106.212891 L1096.375,138 L1106.87305,138 L1106.87305,103.576172 C1106.87305,90.9296875 1100.18359,83.8007812 1088.31836,83.8007812 C1080.31055,83.8007812 1074.10938,87.3652344 1071.52148,93.2734375 L1070.74023,93.2734375 L1070.74023,84.8261719 L1060.63281,84.8261719 L1060.63281,138 Z M1157.67383,71.9355469 L1157.67383,85.0703125 L1148.93359,85.0703125 L1148.93359,93.9082031 L1157.67383,93.9082031 L1157.67383,123.9375 C1157.67383,134.191406 1162.3125,138.292969 1173.98242,138.292969 C1176.0332,138.292969 1177.9375,138.048828 1179.59766,137.755859 L1179.59766,129.015625 C1178.13281,129.162109 1177.30273,129.259766 1175.69141,129.259766 C1170.4668,129.259766 1168.17188,126.818359 1168.17188,121.251953 L1168.17188,93.9082031 L1180.08594,93.9082031 L1180.08594,85.0703125 L1168.17188,85.0703125 L1168.17188,71.9355469 L1157.67383,71.9355469 Z M1195.03711,138 L1205.53516,138 L1205.53516,106.945312 C1205.53516,98.8886719 1210.85742,93.46875 1219.45117,93.46875 C1227.36133,93.46875 1231.31641,97.765625 1231.31641,106.261719 L1231.31641,138 L1241.81445,138 L1241.81445,103.673828 C1241.81445,91.0273438 1234.97852,83.8496094 1223.01562,83.8496094 C1215.00781,83.8496094 1208.85547,87.4140625 1206.26758,93.3710938 L1205.4375,93.3710938 L1205.4375,64.0742188 L1195.03711,64.0742188 L1195.03711,138 Z M1280.93555,92.7363281 C1288.69922,92.7363281 1293.77734,98.15625 1294.02148,106.505859 L1267.16602,106.505859 C1267.75195,98.2050781 1273.17188,92.7363281 1280.93555,92.7363281 L1280.93555,92.7363281 Z M1293.97266,123.644531 C1292.01953,127.794922 1287.67383,130.089844 1281.32617,130.089844 C1272.92773,130.089844 1267.50781,124.181641 1267.16602,114.855469 L1267.16602,114.269531 L1304.71484,114.269531 L1304.71484,110.607422 C1304.71484,93.9082031 1295.7793,83.8007812 1280.98438,83.8007812 C1265.99414,83.8007812 1256.47266,94.5917969 1256.47266,111.583984 C1256.47266,128.576172 1265.79883,139.025391 1281.0332,139.025391 C1293.19141,139.025391 1301.6875,133.166016 1304.08008,123.644531 L1293.97266,123.644531 Z" id="Download-on-the" fill="#FFFFFF"></path>
                <g id="logo_apple" transform="translate(130.000000, 67.000000)" fill="#FFFFFF">
                    <path d="M193.340766,150.55423 C193.018956,114.788858 222.625537,97.3888881 223.979361,96.5788129 C207.211916,72.132299 181.22293,68.7921262 172.090165,68.5258002 C150.262524,66.2287378 129.089602,81.5868745 117.970488,81.5868745 C106.629437,81.5868745 89.5068896,68.7477385 71.0527122,69.1250338 C47.3053043,69.4912322 25.0892712,83.2403156 12.9048535,104.590789 C-12.2407663,148.124005 6.5130278,212.097746 30.6044403,247.286078 C42.655695,264.530691 56.737686,283.761653 75.1696694,283.084741 C93.2021638,282.352344 99.937994,271.588332 121.699053,271.588332 C143.260368,271.588332 149.585612,283.084741 168.383794,282.640864 C187.736822,282.352344 199.92124,265.340766 211.550811,247.940796 C225.477446,228.210473 231.070293,208.735379 231.292231,207.736657 C230.848355,207.592397 193.718062,193.42163 193.340766,150.55423" id="Fill-2"></path>
                    <path d="M157.830624,45.3776258 C167.529331,33.2486927 174.165289,16.7475733 172.323201,0.00232156273 C158.285597,0.623749061 140.73027,9.71212622 130.620977,21.5747333 C121.67686,32.0280316 113.687077,49.1616754 115.751104,65.2744027 C131.519827,66.4506762 147.710233,57.3179113 157.830624,45.3776258" id="Fill-3"></path>
                </g>
            </g>
        </g>
    </g>
</svg>