<?xml version="1.0" encoding="UTF-8"?>
<svg width="124px" height="124px" viewBox="0 0 124 124" version="1.1" xmlns="http://www.w3.org/2000/svg" xmlns:xlink="http://www.w3.org/1999/xlink">
    <!-- Generator: Sketch 51.2 (57519) - http://www.bohemiancoding.com/sketch -->
    <title>avatar-small</title>
    <desc>Created with Sketch.</desc>
    <defs></defs>
    <g id="Emergency-Data" stroke="none" stroke-width="1" fill="none" fill-rule="evenodd">
        <g id="Desktop-View" transform="translate(-848.000000, -195.000000)">
            <g id="Group-3-Copy-2" transform="translate(848.000000, 195.000000)">
                <g id="avatar-small" transform="translate(-2.198035, -2.517737)">
                    <circle id="Oval" fill="#F0F0F0" cx="64.1202951" cy="64.1202951" r="64.1202951"></circle>
                    <g id="images-/-my-data-/-image-avatar-male" transform="translate(19.000000, 26.000000)" fill="#CDCDCD">
                        <path d="M0.168500835,83.8450182 C3.99659764,75.0319541 11.6933876,69.907197 20.7984851,66.6829625 C25.500822,65.0192496 30.7367157,63.2124216 34.4701484,59.7001388 C37.9719821,56.4040194 37.9309393,52.7307321 37.9294735,48.1376322 C28.2800086,42.2073007 25.2149879,28.9438118 26.8420434,18.2534128 C28.428056,7.84626245 35.2015904,0.930523947 45.7965065,0.930523947 C57.3251471,0.930523947 64.3156223,9.31617367 65.0089531,20.6774246 C65.6260616,30.7908909 62.77505,42.5367636 53.6620736,48.1376322 C53.6606078,51.7721592 53.3674447,55.0876587 55.6570488,58.1020203 C57.5464853,60.5901357 60.3755096,62.2404316 63.1121876,63.5866079 C70.4090183,67.1779021 78.492992,68.6582488 84.744696,74.2710437 C87.3616191,76.7107481 89.4771842,79.6641373 91.0071814,82.9065619 C79.3631236,94.8349666 63.1065474,102.24059 45.1202951,102.24059 C27.6105414,102.24059 11.7400312,95.2221542 0.168500835,83.8450182 Z" id="Combined-Shape"></path>
                    </g>
                </g>
            </g>
        </g>
    </g>
</svg>