<svg xmlns="http://www.w3.org/2000/svg" xmlns:xlink="http://www.w3.org/1999/xlink" viewBox="0 0 150.38 47.33"><defs><style>.cls-1{fill:none;stroke-linecap:round;stroke-linejoin:round;stroke-width:7.85px;stroke:url(#Unbenannter_Verlauf_11);}.cls-2{fill:url(#Unbenannter_Verlauf_27);}.cls-3{fill:#00b8e4;}.cls-4,.cls-5{fill:#575756;}.cls-4{fill-rule:evenodd;}</style><linearGradient id="Unbenannter_Verlauf_11" x1="27.48" y1="0.07" x2="27.48" y2="45.23" gradientUnits="userSpaceOnUse"><stop offset="0.2" stop-color="#03d4bf"/><stop offset="1" stop-color="#00b8e4"/></linearGradient><linearGradient id="Unbenannter_Verlauf_27" x1="27.48" x2="27.48" y2="45.23" gradientUnits="userSpaceOnUse"><stop offset="0.05" stop-color="#03d4bf"/><stop offset="0.95" stop-color="#00b8e4"/></linearGradient></defs><title>Asset 1</title><g id="Layer_2" data-name="Layer 2"><g id="Layer_1-2" data-name="Layer 1"><path class="cls-1" d="M34,20.39,20.59,6.85a9.74,9.74,0,1,0,0,13.78h0L34.37,6.85A9.74,9.74,0,0,1,48.14,20.63L27.47,41.31l-8.09-8.09"/><path class="cls-2" d="M27.47,45.23a3.93,3.93,0,0,1-2.78-1.15L16.59,36a3.93,3.93,0,1,1,5.56-5.56l5.32,5.33L45.4,17.8a5.83,5.83,0,1,0-8.24-8.24L33,13.73l3.81,3.85a3.93,3.93,0,1,1-5.58,5.53l-3.79-3.82-4.07,4.07A13.69,13.69,0,1,1,23.36,4l4.1,4.14L31.6,4A13.69,13.69,0,0,1,51,23.36L30.25,44.08A3.89,3.89,0,0,1,27.47,45.23ZM13.69,7.86a5.86,5.86,0,0,0-4.13,1.7A5.83,5.83,0,1,0,17.8,17.8l4.1-4.1L17.79,9.55A5.78,5.78,0,0,0,13.69,7.86Z"/><polygon class="cls-3" points="21.9 13.7 27.46 8.14 32.99 13.73 27.43 19.29 21.9 13.7"/><polygon class="cls-4" points="80.81 32.33 71.48 7.86 66.5 7.86 78.42 38.45 83.19 38.45 95.11 7.86 90.13 7.86 80.81 32.33"/><path class="cls-4" d="M100.32,8.84a2.49,2.49,0,0,0-2.59,2.58,2.59,2.59,0,0,0,5.18,0A2.49,2.49,0,0,0,100.32,8.84Z"/><rect class="cls-5" x="98.16" y="17.86" width="4.32" height="20.6"/><path class="cls-4" d="M145.94,17.73l-5.92,15-5.92-15h-4.44l8.24,20.59-.84,2.15c-.76,1.93-1.91,3-3.6,3a6.48,6.48,0,0,1-2.11-.43V46.9a8.57,8.57,0,0,0,3,.43c3.09,0,4.9-1.71,7-6.86l9.09-22.74Z"/><polygon class="cls-4" points="116.19 32.87 110.14 17.86 105.61 17.86 114.03 38.45 118.36 38.45 126.78 17.86 122.25 17.86 116.19 32.87"/></g></g></svg>