<svg xmlns="http://www.w3.org/2000/svg" width="85" height="98" viewBox="0 0 85 98">
    <defs>
        <linearGradient id="a" x1="50%" x2="50%" y1="30.033%" y2="98.313%">
            <stop offset="0%" stop-color="#00E4CD"/>
            <stop offset="100%" stop-color="#00B8E4"/>
        </linearGradient>
    </defs>
    <g fill="none" fill-rule="evenodd">
        <path fill="url(#a)" d="M33.089 13.64l4.095 4.072c2.272 2.255 5.964 2.255 8.234 0a5.737 5.737 0 0 0 1.705-4.094c0-1.544-.606-2.999-1.705-4.09-2.2-2.187-6.034-2.187-8.232 0L33.09 13.64zM27.506 45a3.952 3.952 0 0 1-2.786-1.146L4.012 23.248A13.487 13.487 0 0 1 0 13.618c0-3.638 1.423-7.057 4.012-9.63A13.638 13.638 0 0 1 13.696 0c3.661 0 7.1 1.415 9.686 3.988l4.138 4.114 4.082-4.1A13.651 13.651 0 0 1 41.302 0c3.66 0 7.098 1.415 9.686 3.988A13.495 13.495 0 0 1 55 13.618c0 3.638-1.425 7.057-4.012 9.63-5.342 5.31-14.032 5.31-19.372 0l-4.07-4.044-3.751 3.766a3.951 3.951 0 0 1-5.57.028 3.896 3.896 0 0 1-.025-5.537l3.775-3.793-4.161-4.14c-2.2-2.187-6.036-2.187-8.232 0a5.721 5.721 0 0 0-1.707 4.09 5.73 5.73 0 0 0 1.707 4.094l17.926 17.833 5.255-5.226a3.954 3.954 0 0 1 5.57 0 3.896 3.896 0 0 1 0 5.537l-8.04 7.998A3.956 3.956 0 0 1 27.505 45z" transform="matrix(-1 0 0 1 70 0)"/>
        <path fill="#20CBF4" d="M36.969 13.623l5.545 5.613 5.585-5.613-5.585-5.477z"/>
        <g fill="#575756">
            <path d="M12.083 89L0 58h5.053L14.5 82.8 23.947 58H29L16.917 89zM36.818 68.13V89h-4.38V68.13h4.38zm.437-6.521c0 1.521-1.094 2.608-2.627 2.608-1.533 0-2.628-1.087-2.628-2.608C32 60.087 33.095 59 34.628 59c1.533 0 2.627 1.087 2.627 2.609zM53.46 89h-4.38l-8.54-20.87h4.599l6.131 15.218 6.131-15.218H62L53.46 89zM71.5 91.043l.857-2.173L64 68h4.5l6 15.217L80.5 68H85l-9.214 23.043C73.686 96.261 71.843 98 68.714 98c-1.928 0-3-.435-3-.435v-3.913s1.072.435 2.143.435c1.714 0 2.872-1.087 3.643-3.044z"/>
        </g>
    </g>
</svg>
