<?xml version="1.0" standalone="no"?>
<!DOCTYPE svg PUBLIC "-//W3C//DTD SVG 1.1//EN" "http://www.w3.org/Graphics/SVG/1.1/DTD/svg11.dtd">
<svg xmlns="http://www.w3.org/2000/svg">
<metadata>Copyright (C) 2019 by original authors @ fontello.com</metadata>
<defs>
<font id="vivy-icons" horiz-adv-x="1000" >
<font-face font-family="vivy-icons" font-weight="400" font-stretch="normal" units-per-em="1000" ascent="850" descent="-150" />
<missing-glyph horiz-adv-x="1000" />
<glyph glyph-name="gender-other" unicode="&#xe800;" d="M500-67c-230 0-417 187-417 417 0 230 187 417 417 417 230 0 417-187 417-417 0-230-187-417-417-417z m0 84c184 0 333 149 333 333 0 184-149 333-333 333-184 0-333-149-333-333 0-184 149-333 333-333z" horiz-adv-x="1000" />

<glyph glyph-name="add" unicode="&#xe801;" d="M542 392l0 208c0 23-19 42-42 42l0 0c-23 0-42-19-42-42l0-208-208 0c-23 0-42-19-42-42l0 0c0-23 19-42 42-42l208 0 0-208c0-23 19-42 42-42l0 0c23 0 42 19 42 42l0 208 208 0c23 0 42 19 42 42l0 0c0 23-19 42-42 42l-208 0z" horiz-adv-x="1000" />

<glyph glyph-name="allergy-test" unicode="&#xe802;" d="M645 616l-295-294c-16-17-16-43 0-59 16-17 43-17 59 0l295 294-59 59z m-378-378c-22 46-14 104 24 143l295 294c-16 16-16 43 0 59 16 16 43 16 59 0l44-44 56 56c25 25 64 25 89 0 24-24 24-64 0-88l-57-56 45-45c16-16 16-42 0-59-17-16-43-16-59 0l-295-294c-39-39-96-47-143-24-1-2-3-4-4-6l-30-29c-16-16-42-16-59 0-16 16-16 43 0 59l30 29c1 2 3 3 5 5z m-17-305c-34 0-62 28-62 62 0 22 20 57 62 105 42-48 63-83 63-105 0-34-28-62-63-62z" horiz-adv-x="1000" />

<glyph glyph-name="arrow-down" unicode="&#xe803;" d="M542 624l0-465 203 203c16 17 43 17 59 0l0 0 0 0c16-16 16-42 0-59l-274-274c-17-16-43-16-59 0l-275 274c-16 17-16 43 0 59 16 16 43 16 59 0l203-203 0 465c0 23 19 42 42 42 23 0 42-19 42-42z" horiz-adv-x="1000" />

<glyph glyph-name="arrow-left" unicode="&#xe804;" d="M792 392l-466 0 204 203c16 16 16 43 0 59 0 0 0 0 0 0l0 0c-17 16-43 16-59 0l-275-274c-16-17-16-43 0-59l275-275c16-16 42-16 58 0l0 0c17 16 17 43 0 59l-203 203 466 0c23 0 41 19 41 42l0 0c0 23-18 42-41 42z" horiz-adv-x="1000" />

<glyph glyph-name="arrow-right" unicode="&#xe805;" d="M208 392l466 0-204 203c-16 16-16 43 0 59l0 0 1 0c16 16 42 16 58 0l275-274c16-17 16-43 0-59l-275-275c-16-16-42-16-58 0-17 16-17 43 0 59l203 203-466 0c-23 0-41 19-41 42 0 23 18 42 41 42z" horiz-adv-x="1000" />

<glyph glyph-name="arrow-up" unicode="&#xe806;" d="M542 58c0-23-19-41-42-41-23 0-42 18-42 41l0 466-203-203c-16-17-43-17-59 0-16 16-16 42 0 58l275 275c16 16 42 16 59 0l274-275c16-16 16-42 0-58l0-1 0 0c-16-16-43-16-59 0l-203 204 0-466z" horiz-adv-x="1000" />

<glyph glyph-name="bank" unicode="&#xe807;" d="M67 557c-6 20-18 36-43 47-21 9-30 34-20 55 9 21 34 30 55 21 47-22 82-61 91-116 25 13 52 23 80 29 7 97 88 174 187 174 90 0 165-64 183-149l110 69c38 23 82-1 82-45 0 0 0-87-1-94 54-37 93-91 112-156 10 0 35 0 35 0 34 0 62-28 62-63l0-167c0-34-28-62-62-62 0 0-105 0-109 0-18-17-37-31-37-31l0-73c0-35-28-63-63-63l-125 0c-34 0-62 28-62 63l0 21-167 0 0-21c0-35-28-63-62-63l-126 0c-34 0-62 28-62 63 0 0 0 66 0 73-77 54-125 143-125 239 0 68 23 130 61 179 0 1 14 38 6 70z m506-82l11 0c22 0 41-19 41-42 0-23-19-41-41-41l-334 0c-23 0-42 18-42 41 0 24 19 42 42 42l11 0c-8 11-14 23-19 36-91-22-159-105-159-203 0-139 125-192 125-192l0-99 84 0 0 83 333 0-1-83 84 0 0 99c0 0 53 25 85 67 49 0 124 0 124 0l0 125c0 0-59 0-81 0-7 145-128 193-128 193l0 86-114-70c-6-15-13-29-21-42z m135-167c-23 0-41 19-41 42 0 23 18 42 41 42 23 0 42-19 42-42 0-23-19-42-42-42z m-291 167c57 0 104 47 104 104 0 58-47 104-104 104-58 0-104-46-104-104 0-57 46-104 104-104z" horiz-adv-x="1000" />

<glyph glyph-name="barcode" unicode="&#xe808;" d="M104 725c0 23 19 42 42 42l42 0c23 0 41-19 41-42l0-750c0-23-18-42-41-42l-42 0c-23 0-42 19-42 42l0 750z m209 0c0 23 18 42 41 42 23 0 42-19 42-42l0-583c0-23-19-42-42-42-23 0-41 19-41 42l0 583z m500 0c0 23 18 42 41 42 23 0 42-19 42-42l0-750c0-23-19-42-42-42-23 0-41 19-41 42l0 750z m-146 0c0 23 18 42 41 42 23 0 42-19 42-42l0-583c0-23-18-42-42-42-23 0-41 19-41 42l0 583z m-229 0c0 23 18 42 41 42l84 0c23 0 41-19 41-42l0-583c0-23-18-42-41-42l-84 0c-23 0-41 19-41 42l0 583z" horiz-adv-x="1000" />

<glyph glyph-name="blood-test" unicode="&#xe809;" d="M208 225c0 156 111 202 260 480 11 19 13 25 13 25 11 20 28 20 38 0 0 0 3-7 14-27 151-276 259-322 259-478 0-161-131-292-292-292-161 0-292 131-292 292z m205 232c-13-18-90-127-99-144-16-29-22-55-22-88 0-115 93-208 208-208 115 0 208 93 208 208 0 34-6 60-21 89-9 17-87 127-98 144-32 44-89 134-89 134 0 0-37-64-87-135z m87-399c-92 0-167 75-167 167 0 23 19 42 42 42 23 0 42-19 42-42 0-46 37-83 83-83 23 0 42-19 42-42 0-23-19-42-42-42z" horiz-adv-x="1000" />

<glyph glyph-name="body" unicode="&#xe80a;" d="M661 558l89 0c69 0 125-56 125-125 0-69-56-125-125-125l-42 0 0-273c0-56-37-102-83-102l-250 0c-46 0-83 46-83 102l0 273-42 0c-69 0-125 56-125 125 0 69 56 125 125 125l89 0c-4 14-6 28-6 42 0 92 75 167 167 167 92 0 167-75 167-167 0-14-2-28-6-42z m-271-83l-140 0c-23 0-42-19-42-42 0-23 19-41 42-41l125 0 0-334c0-23 19-41 42-41 23 0 41 18 41 41l0 167 84 0 0-167c0-23 18-41 41-41 23 0 42 18 42 41l0 334 125 0c23 0 42 18 42 41 0 23-19 42-42 42l-140 0c-29-26-68-42-110-42-42 0-81 16-110 42z m110 208c-46 0-83-37-83-83 0-46 37-83 83-83 46 0 83 37 83 83 0 46-37 83-83 83z" horiz-adv-x="1000" />

<glyph glyph-name="calendar" unicode="&#xe80b;" d="M417 17l166 0 0 166-166 0 0-166z m166 250l0 166-166 0 0-166 166 0z m84-84l0-166 125 0c23 0 41 18 41 41l0 125-166 0z m166 250l-166 0 0-166 166 0 0 166z m-666-250l0-125c0-23 18-41 41-41l125 0 0 166-166 0z m166 84l0 166-166 0 0-166 166 0z m500 333c0 23-18 42-41 42 0-23-19-42-42-42-23 0-42 19-42 42l-83 0c0-23-18-42-42-42-23 0-41 19-41 42l-84 0c0-23-18-42-41-42-23 0-42 19-42 42l-83 0c0-23-19-42-42-42-23 0-42 19-42 42-23 0-41-19-41-42l0-83 666 0 0 83z m84 0l0-542c0-69-56-125-125-125l-584 0c-69 0-125 56-125 125l0 542c0 69 56 125 125 125l0 42c0 23 19 41 42 41 23 0 42-18 42-41l0-42 83 0 0 42c0 23 19 41 42 41 23 0 41-18 41-41l0-42 84 0 0 42c0 23 18 41 41 41 23 0 42-18 42-41l0-42 83 0 0 42c0 23 19 41 42 41 23 0 42-18 42-41l0-42c69 0 125-56 125-125z" horiz-adv-x="1000" />

<glyph glyph-name="call-filled" unicode="&#xe80c;" d="M164 632l73 74c9 8 22 8 30 0l118-118c8-8 8-21 0-29l-15-15c-49-49-49-128 0-177l147-147c49-49 128-49 177 0l15 15c8 8 21 8 29 0l118-118c8-8 8-21 0-30l-74-73c-36-36-107-45-152-22-2 1-7 4-13 7-9 5-19 11-27 16-2 1-2 1-4 2-13 8-24 14-31 19-61 41-128 98-199 168-70 71-127 138-169 200-5 7-11 18-19 31-1 2-1 2-2 3-5 9-10 19-16 28-3 6-5 10-7 14-23 47-15 117 21 152z" horiz-adv-x="1000" />

<glyph glyph-name="call-outline" unicode="&#xe80d;" d="M458 544l-44-44c-24-24-24-64 0-89l147-147c25-24 64-24 89 0l44 44c16 17 43 17 59 0l162-162c24-24 25-64 0-88l-88-89c-57-57-161-71-230-30 0 0-110 46-285 221-174 175-223 287-223 287-40 70-26 173 30 230l89 88c24 24 64 25 88 0l162-162c17-16 17-43 0-59z m-280 74c-30-30-35-91-17-129 0 0 30-54 43-73 40-58 94-124 167-197 73-73 138-127 196-166 19-13 73-43 73-43 35-18 97-12 128 18l73 74-117 118-15-15c-57-57-149-57-207 0l-147 147c-57 57-57 150 0 207l15 15-118 117-74-73z" horiz-adv-x="1000" />

<glyph glyph-name="camera" unicode="&#xe80e;" d="M500 454c-69 0-125-56-125-125 0-69 56-125 125-125 69 0 125 56 125 125 0 13-2 25-5 37-10-22-32-37-57-37-35 0-63 28-63 63 0 25 15 47 37 57-12 3-24 5-37 5z m-258 188l34 86c9 21 34 39 57 39l334 0c23 0 48-18 57-39l34-86 117 0c46 0 83-38 83-84l0-500c0-46-37-83-83-83l-750 0c-46 0-83 37-83 83l0 500c0 46 37 84 83 84l117 0z m-117-84l0-500 750 0 0 500-152 0c-12 0-24 9-29 20l-42 105-304 0-42-105c-4-11-17-20-29-20l-152 0z m167-229c0 115 93 209 208 209 115 0 208-94 208-209 0-115-93-208-208-208-115 0-208 93-208 208z" horiz-adv-x="1000" />

<glyph glyph-name="checkbox-empty" unicode="&#xe80f;" d="M83 17l0 666c0 46 38 84 84 84l666 0c46 0 84-37 84-84l0-666c0-46-37-84-84-84l-666 0c-46 0-84 37-84 84z m750 666l-666 0 0-666 666 0 0 666z" horiz-adv-x="1000" />

<glyph glyph-name="checkbox-filled" unicode="&#xe810;" d="M83 17l0 666c0 46 38 84 84 84l666 0c46 0 84-37 84-84l0-666c0-46-37-84-84-84l-666 0c-46 0-84 37-84 84z m325 137c16-16 43-16 59 0l313 312c16 17 16 43 0 59-17 17-43 17-59 0l-283-283-138 138c-16 16-42 16-59 0-16-17-16-43 0-59l167-167z" horiz-adv-x="1000" />

<glyph glyph-name="chevron-down" unicode="&#xe811;" d="M500 284l179 179c16 16 43 16 59 0 16-16 16-43 0-59l-209-208c-16-17-42-17-58 0l-209 208c-16 16-16 43 0 59 16 16 43 16 59 0l179-179z" horiz-adv-x="1000" />

<glyph glyph-name="chevron-left" unicode="&#xe812;" d="M434 329l179-179c16-16 16-42 0-59-16-16-43-16-59 0l-208 209c-17 16-17 42 0 59l208 208c16 16 43 16 59 0 16-16 16-43 0-59l-179-179z" horiz-adv-x="1000" />

<glyph glyph-name="chevron-right" unicode="&#xe813;" d="M566 329l-179 179c-16 16-16 43 0 59 16 16 43 16 59 0l209-208c16-17 16-43 0-59l-209-209c-16-16-43-16-59 0-16 17-16 43 0 59l179 179z" horiz-adv-x="1000" />

<glyph glyph-name="chevron-up" unicode="&#xe814;" d="M500 416l-179-179c-16-16-43-16-59 0-16 16-16 43 0 59l209 209c16 16 42 16 58 0l209-209c16-16 16-43 0-59-16-16-43-16-59 0l-179 179z" horiz-adv-x="1000" />

<glyph glyph-name="close" unicode="&#xe815;" d="M762 612l0 0c-16 17-42 17-58 0l-204-203-203 203c-17 17-43 17-59 0l0 0c-16-16-16-42 0-58l203-204-203-203c-16-17-16-43 0-59l0 0c16-16 42-16 59 0l203 203 204-203c16-16 42-16 58 0l0 0c17 16 17 42 0 59l-203 203 203 204c17 16 17 42 0 58z" horiz-adv-x="1000" />

<glyph glyph-name="apotheke" unicode="&#xe816;" d="M458 433l0 42c0 23 19 42 42 42 23 0 42-19 42-42l0-42 41 0 0 85-47 40c-18 14-20 41-5 58 14 18 41 20 58 6l63-52c9-8 15-20 15-32l0-146c0-23-19-42-42-42l-375 0 0-125 39 0c1 0 1 0 1 0 1 0 1 0 2 0 23 0 41-19 41-42l0-41c0-31-32-51-60-38l-56 29-63-63 175-88 129 97 0 104c0 23 19 42 42 42l125 0c41-21 41-21 40-30 2-6 2-6 2-8 0-3 1-6 1-10 0-6 0-14 0-25 0-17 0-42-1-73l118-89 71 83-47 35c-11 8-17 20-17 34l0 438-172 138-287-144 0-141 125 0z m-291-232l0 191c0 23 18 41 41 41l42 0 0 167c0 16 9 30 23 37l333 167c15 7 32 5 45-5l208-166c10-8 16-20 16-33l1-438 65-49c1 0 1 0 1-1 18-13 22-39 8-58-1-1-1-1-2-2l-125-146c-14-17-39-19-56-6l-167 125c-11 8-17 21-17 34 1 35 2 63 2 83l-43 0 0-83c0-13-6-26-17-34 0 0 0 0 0 0l-167-125c-12-10-29-11-43-4l-250 125c-26 13-31 47-11 67l113 113z" horiz-adv-x="1000" />

<glyph glyph-name="comments" unicode="&#xe817;" d="M500-67c-230 0-417 187-417 417 0 230 187 417 417 417 230 0 417-187 417-417 0-63-14-122-39-176l36-175c10-45-19-74-64-64l-175 37c-53-25-112-39-175-39z m165 126l159-34-33 159 11 25c21 44 31 92 31 141 0 184-149 333-333 333-184 0-333-149-333-333 0-184 149-333 333-333 49 0 97 10 140 31l25 11z m-165 229c-34 0-62 28-62 62 0 35 28 63 62 63 35 0 63-28 63-63 0-34-28-62-63-62z m-167 0c-34 0-62 28-62 62 0 35 28 63 62 63 35 0 63-28 63-63 0-34-28-62-63-62z m334 0c-35 0-63 28-63 62 0 35 28 63 63 63 34 0 62-28 62-63 0-34-28-62-62-62z" horiz-adv-x="1000" />

<glyph glyph-name="confirmed-fill" unicode="&#xe818;" d="M500-67c-230 0-417 187-417 417 0 230 187 417 417 417 230 0 417-187 417-417 0-230-187-417-417-417z m-92 263c16-17 43-17 59 0l229 229c16 16 16 42 0 59-16 16-42 16-59 0l-199-201-96 97c-16 16-43 16-59 0-16-17-16-43 0-59l125-125z" horiz-adv-x="1000" />

<glyph glyph-name="confirmed-filled-16" unicode="&#xe819;" d="M500-150c-276 0-500 224-500 500 0 276 224 500 500 500 276 0 500-224 500-500 0-276-224-500-500-500z m-122 284c24-24 64-24 88 0l344 344c24 24 24 64 0 88-25 25-64 25-89 0l-299-300-143 144c-25 24-64 24-89 0-24-25-24-64 0-89l188-187z" horiz-adv-x="1000" />

<glyph glyph-name="confirmed" unicode="&#xe81a;" d="M500-67c-230 0-417 187-417 417 0 230 187 417 417 417 230 0 417-187 417-417 0-230-187-417-417-417z m-92 263c16-17 43-17 59 0l229 229c16 16 16 42 0 59-16 16-42 16-59 0l-199-201-96 97c-16 16-43 16-59 0-16-17-16-43 0-59l125-125z" horiz-adv-x="1000" />

<glyph glyph-name="credit-card" unicode="&#xe81b;" d="M875 600l-750 0 0-83 750 0 0 83z m0-208l-750 0 0-292 750 0 0 292z m-833 208c0 46 37 83 83 83l750 0c46 0 83-37 83-83l0-500c0-46-37-83-83-83l-750 0c-46 0-83 37-83 83l0 500z m583-333c0 23 19 41 42 41l83 0c23 0 42-18 42-41 0-23-19-42-42-42l-83 0c-23 0-42 19-42 42z" horiz-adv-x="1000" />

<glyph glyph-name="crop" unicode="&#xe81c;" d="M625 225l0 250-458 0c-23 0-42 19-42 42 0 23 19 41 42 41l125 0 0 125c0 23 18 42 41 42 23 0 42-19 42-42l0-125 292 0c11 0 22-4 29-12 8-7 12-18 12-29l0-292 126 0c22 0 41-18 41-42 0-23-19-41-41-41l-501 0c-23 0-41 18-41 41 0 0 0 229 0 229 0 12 9 21 21 21l41 0c12 0 21-9 21-21l0-187 250 0z m0-146c0 12 9 21 21 21l41 0c12 0 21-9 21-21l0-62c0-23-18-42-41-42-23 0-42 19-42 42l0 62z" horiz-adv-x="1000" />

<glyph glyph-name="ct-scan" unicode="&#xe81d;" d="M150 216c54-141 190-241 350-241 160 0 296 100 350 241-84-46-210-74-350-74-140 0-266 28-350 74l0 0z m0 268c84 46 210 74 350 74 140 0 266-28 350-74-54 141-190 241-350 241-160 0-296-100-350-241l0 0z m350-592c-253 0-458 205-458 458 0 253 205 458 458 458 253 0 458-205 458-458 0-253-205-458-458-458z m0 333c112 0 216 20 290 54 32 14 57 31 71 47 11 11 14 18 14 24 0 6-3 13-14 24-14 16-39 33-71 48-74 33-178 53-290 53-112 0-216-20-290-53-32-15-56-32-71-48-10-11-14-18-14-24 0-6 4-13 14-24 15-16 39-33 71-47 74-34 178-54 290-54z" horiz-adv-x="1000" />

<glyph glyph-name="current-position-fill" unicode="&#xe81e;" d="M152 429c-37-16-31-70 9-79l284-57 58-285c8-40 63-46 79-8l292 666c15 35-20 70-55 55l-667-292z" horiz-adv-x="1000" />

<glyph glyph-name="customer-service" unicode="&#xe81f;" d="M833 350c0 44-8 86-24 125l-618 0c-16-39-24-81-24-125l41 0c46 0 84-37 84-83l0-84c0-46-38-83-84-83l-41 0c-46 0-84 37-84 83l0 167c0 230 187 417 417 417 230 0 417-187 417-417l0-167c0-138-112-250-250-250l-125 0c-23 0-42 19-42 42l0 42c0 23 19 41 42 41l125 0c21 0 39-16 41-36 44 11 81 40 103 78l-19 0c-46 0-84 37-84 83l0 84c0 46 38 83 84 83l41 0z m-593 208l520 0c-61 77-155 125-260 125-105 0-199-48-260-125z" horiz-adv-x="1000" />

<glyph glyph-name="current-position" unicode="&#xe820;" d="M152 429c-37-16-31-70 9-79l284-57 58-285c8-40 63-46 79-8l292 666c15 35-20 70-55 55l-667-292z m407-276l-38 184c-3 16-16 29-32 32l-182 37 448 196-196-449z" horiz-adv-x="1000" />

<glyph glyph-name="data-security" unicode="&#xe821;" d="M286 37c-99 81-160 188-161 313 1 138 0 373 0 375 0 27 26 47 52 40 1 0 57-14 97-20 75-11 152-20 226-20 75 0 152 9 226 20 41 6 96 20 97 20 27 7 53-13 53-40 0-2-1-237 0-375-1-125-62-232-162-313-73-61-167-104-214-104-47 0-141 43-214 104z m-26 625c-19 3-35 7-52 11 0-16 1-185 0-323 1-97 49-182 131-249 33-27 68-49 103-65 27-12 50-19 58-19 9 0 32 7 59 19 34 16 70 38 102 65 82 67 131 152 131 249 0 138 0 307 0 323-16-4-33-8-51-11-80-11-161-20-241-20-79 0-161 9-240 20z m169-446l-83 84c-17 16-17 42 0 59 16 16 42 16 59 0l53-55 200 201c16 16 43 16 59 0 16-17 16-43 0-59l-229-230c-16-16-43-16-59 0z" horiz-adv-x="1000" />

<glyph glyph-name="default" unicode="&#xe822;" d="M458 683l-208 0 0-666 500 0c0 0 0 243 0 375l-250 0c-23 0-42 18-42 41l0 250z m84-208l208 0-208 208 0-208z m-292 292l304 0c12 0 28-7 36-15l229-229c8-8 14-24 14-35l0-471c0-46-37-84-83-84l-500 0c-46 0-83 38-83 84l0 666c0 46 37 84 83 84z" horiz-adv-x="1000" />

<glyph glyph-name="delete" unicode="&#xe823;" d="M292 17c0 0 416 0 416 0 0 0 0 408 0 541l-416 0 0-541z m500 0c0-46-38-84-84-84l-416 0c-46 0-84 38-84 84l0 541c-23 0-41 19-41 42 0 23 18 42 41 42l209 0c0 46 37 83 83 83 46 0 83-37 83-83l209 0c23 0 41-19 41-42 0-23-18-42-41-42l0-541z m-250 416c0 23 18 42 41 42 23 0 42-19 42-42l0-291c0-23-18-42-42-42-23 0-41 19-41 42l0 291z m-167 0c0 23 19 42 42 42 23 0 41-19 41-42l0-291c0-23-18-42-41-42-23 0-42 19-42 42l0 291z" horiz-adv-x="1000" />

<glyph glyph-name="dentist-filled" unicode="&#xe824;" d="M623 764c16 1 32 1 49-1 123-14 225-117 225-247 0-106-26-245-65-362-45-137-98-222-165-221-60 0-111 58-167 188-58-133-107-189-167-188-61 1-119 86-164 222-39 117-65 256-65 362 0 130 103 232 225 246 85 10 166-30 171-32 59-28 117-81 176-159 0 89-18 153-53 192z m-248-81c-92 0-167-74-167-166 0-23 19-42 42-42 23 0 42 19 42 42 0 46 37 83 83 83 23 0 42 19 42 42 0 23-19 41-42 41z" horiz-adv-x="1000" />

<glyph glyph-name="dentist-outline" unicode="&#xe825;" d="M500 731c0 0 3 2 24 11 46 18 96 27 148 21 123-14 225-117 225-247 0-106-26-245-65-362-45-137-98-222-165-221-60 0-111 58-167 188-58-133-107-189-167-188-61 1-119 86-164 222-39 117-65 256-65 362 0 130 103 232 225 246 88 10 171-32 171-32z m118-107c13-19 8-45-11-58-19-13-45-8-58 12-10 14-84 114-212 104-81-6-149-80-149-165 0-96 23-226 60-336 33-99 74-164 86-164 13 0 86 111 120 222 15 51 77 48 92-1 41-126 108-222 121-222 2 0 45 38 86 164 36 110 61 240 61 336 0 85-69 157-152 166-29 4-57-1-84-9 15-15 28-31 40-49z m-264 18c23 0 42-19 42-42 0-23-19-42-42-42-23 0-41-18-41-41 0-23-19-42-42-42-23 0-42 19-42 42 0 69 56 125 125 125z" horiz-adv-x="1000" />

<glyph glyph-name="diagnose" unicode="&#xe826;" d="M667 808c23 0 41-18 41-41l84 0c46 0 83-37 83-84l0-666c0-46-37-84-83-84l-584 0c-46 0-83 37-83 84l0 666c0 46 37 84 83 84l84 0c0 23 18 41 41 41 23 0 42-18 42-41l83 0c0 23 19 41 42 41 23 0 42-18 42-41l83 0c0 23 19 41 42 41z m-125-125c0-23-19-41-42-41-23 0-42 18-42 41-28 0-56 0-83 0 0-23-18-41-42-41-23 0-41 18-41 41-51 0-84 0-84 0l0-666 584 0 0 666c0 0-33 0-84 0 0-23-18-41-41-41-23 0-42 18-42 41-26 0-55 0-83 0z m-42-270c0 23 19 41 42 41l166 0c23 0 42-18 42-41 0-23-19-42-42-42l-166 0c-23 0-42 18-42 42z m0-230c0 23 19 42 42 42l166 0c23 0 42-18 42-42 0-23-19-41-42-41l-166 0c-23 0-42 18-42 41z m-196 200l-42 42c-16 16-16 42 0 59 17 16 43 16 59 0l12-13 54 54c17 17 43 17 59 0 16-16 16-42 0-59l-83-83c-16-16-43-16-59 0z m0-229l-42 42c-16 16-16 42 0 59 17 16 43 16 59 0l12-13 54 54c17 16 43 16 59 0 16-16 16-42 0-59l-83-83c-16-16-43-16-59 0z" horiz-adv-x="1000" />

<glyph glyph-name="directions" unicode="&#xe827;" d="M229 558c17 17 44 17 60 0 17-16 17-43 0-59l-75-75c-33-33-33-93 0-125 36-36 101-42 143-14l239 158c75 50 186 39 250-24 67-66 67-167 0-232l-60-60c-17-17-44-17-60 0-17 16-17 43 0 59l60 60c33 33 33 80 0 113-35 35-101 42-143 14l-239-158c-75-50-186-39-250 24-66 66-66 179 0 245l75 74z m443-630c-49-49-128-49-177 0-49 49-49 128 0 177 49 49 128 49 177 0 49-49 49-128 0-177z m-428 734c-22 22-13 60 17 70l226 74c33 11 64-20 53-53l-75-223c-10-30-48-39-70-17l-151 149z m162-41l27 79-80-26 53-53z m207-634c16 17 16 43 0 59-16 16-43 16-59 0-16-16-16-42 0-59 16-16 43-16 59 0z" horiz-adv-x="1000" />

<glyph glyph-name="doctor" unicode="&#xe828;" d="M250 788c35 0 63-28 63-63l0-85c0-35-29-63-63-63-33 0-60 26-62 58-13-7-21-21-21-36l0-166 375 0 0 166c0 15-9 29-21 36-2-32-30-58-63-58-34 0-62 28-62 63l0 85c0 35 28 63 62 63 35 0 63-28 63-63 59-12 104-64 104-126l0-190c0-128-102-226-229-226l0-129c0-41 44-71 84-50 18 9 98 79 105 85 31 25 58 40 88 44 17 50 64 86 119 86 69 0 125-56 125-126 0-70-56-127-125-127-53 0-99 34-117 81-10-3-22-11-38-24-5-4-93-81-120-95-96-49-204 24-204 126l0 129c-127 1-230 99-230 226l0 190c0 62 45 114 105 124 0 37 28 65 62 65z m-70-439c23-50 74-83 133-83l83 0c60 0 110 33 133 83l-349 0z m612-298c23 0 41 19 41 42 0 23-18 42-41 42-23 0-42-19-42-42 0-23 19-42 42-42z" horiz-adv-x="1000" />

<glyph glyph-name="doctors-letter" unicode="&#xe829;" d="M458 683l-208 0 0-666 500 0c0 0 0 243 0 375l-250 0c-23 0-42 18-42 41l0 250z m84-208l208 0-208 208 0-208z m-292 292l304 0c12 0 28-7 36-15l229-229c8-8 14-24 14-35l0-471c0-46-37-84-83-84l-500 0c-46 0-83 38-83 84l0 666c0 46 37 84 83 84z m42-625c0 23 18 41 41 41l334 0c23 0 41-18 41-41 0-23-18-42-41-42l-334 0c-23 0-41 19-41 42z m0 125c0 23 19 41 42 41l166 0c23 0 42-18 42-41 0-23-19-42-42-42l-166 0c-24 0-42 19-42 42z" horiz-adv-x="1000" />

<glyph glyph-name="document-review" unicode="&#xe82a;" d="M748-48c-52-38-116-60-185-60-103 0-193 49-250 125l-230 0c-46 0-83 37-83 83l0 667c0 46 37 83 83 83l305 0c11 0 27-7 35-15l229-229c8-8 15-24 15-35l0-72c121-43 208-159 208-295 0-72-24-138-65-191l94-90c17-17 17-44 0-61-18-16-46-16-63 0l-93 90z m-665 815l0-667c0 0 85 0 185 0-12 33-18 68-18 104 0 116 63 217 157 271l-74 0c-23 0-41 19-41 42l0 250-209 0z m500-209l-208 209 0-209 208 0z m209-354c0 127-103 229-229 229-127 0-230-102-230-229 0-126 103-229 230-229 126 0 229 103 229 229z m-209 188c23 0 42-19 42-42 0-23-19-42-42-42-69 0-125-56-125-125 0-23-18-41-41-41-23 0-42 18-42 41 0 115 93 209 208 209z" horiz-adv-x="1000" />

<glyph glyph-name="document-scanning" unicode="&#xe82b;" d="M375 558l208 0-208 209 0-209z m-292 292l305 0c11 0 27-7 35-15l229-229c8-8 15-24 15-35l0-138c0-46-38-83-84-83l-500 0c-46 0-83 38-83 83l0 334c0 46 37 83 83 83z m209-83l0-250c0-23 18-42 41-42l250 0c0-132 0-125 0-125l-500 0 0 417 209 0z m-250-542c-23 0-42 19-42 42 0 23 19 41 42 41l583 0c23 0 42-18 42-41 0-23-19-42-42-42l-583 0z m0-167c-23 0-42 19-42 42 0 23 19 42 42 42 23 0 41-19 41-42 0-23-18-42-41-42z m0-125c-23 0-42 19-42 42 0 23 19 42 42 42 23 0 41-19 41-42 0-23-18-42-41-42z m583 0c-23 0-42 19-42 42 0 23 19 42 42 42 23 0 42-19 42-42 0-23-19-42-42-42z m-125 0c-23 0-42 19-42 42 0 23 19 42 42 42 23 0 42-19 42-42 0-23-19-42-42-42z m-333 0c-23 0-42 19-42 42 0 23 19 42 42 42 23 0 41-19 41-42 0-23-18-42-41-42z m166 0c-23 0-41 19-41 42 0 23 18 42 41 42 23 0 42-19 42-42 0-23-19-42-42-42z m292 125c-23 0-42 19-42 42 0 23 19 42 42 42 23 0 42-19 42-42 0-23-19-42-42-42z" horiz-adv-x="1000" />

<glyph glyph-name="document-unsupported" unicode="&#xe82c;" d="M146 746l0-667c0 0 85 0 184 0-11 33-17 68-17 104 0 116 63 217 156 271l-73 0c-23 0-42 19-42 42l0 250-208 0z m500-208l-208 0 0 208 208-208z m82-311c16 17 16 43 0 60-16 16-43 16-59-1l-44-44-44 44c-16 17-43 17-59 1-16-17-16-43 0-60l44-44-44-44c-16-16-16-42 0-59 16-16 43-16 59 0l44 44 44-44c16-16 43-16 59 0 17 17 16 43 0 59l-44 44 44 44z m1 323c0 11-6 27-14 36l-229 229c-8 8-24 14-36 14l-304 0c-46 0-83-37-83-83l0-667c0-46 37-83 83-83l229 0c57-76 148-125 250-125 173 0 313 140 313 312 0 136-87 252-209 295l0 72z m125-367c0 127-102 230-229 230-127 0-229-103-229-230 0-126 102-229 229-229 127 0 229 103 229 229z" horiz-adv-x="1000" />

<glyph glyph-name="document-upload" unicode="&#xe82d;" d="M146 746l0-667c0 0 85 0 184 0-11 33-17 68-17 104 0 116 63 217 156 271l-73 0c-23 0-42 19-42 42l0 250-208 0z m500-208l-208 0 0 208 208-208z m21-459c0-23-19-41-42-41-23 0-42 18-42 41l0 108-33-33c-16-16-42-16-59 0-16 16-16 43 0 59l105 104c16 16 42 16 59 0l104-104c16-16 16-43 0-59-17-16-43-16-59 0l-33 34 0-109z m62 471c0 11-6 27-14 36l-229 229c-8 8-24 14-36 14l-304 0c-46 0-83-37-83-83l0-667c0-46 37-83 83-83l229 0c57-76 148-125 250-125 173 0 313 140 313 312 0 136-87 252-209 295l0 72z m125-367c0 127-102 230-229 230-127 0-229-103-229-230 0-126 102-229 229-229 127 0 229 103 229 229z" horiz-adv-x="1000" />

<glyph glyph-name="documents" unicode="&#xe82e;" d="M625-25l0 21c0 11 9 21 21 21l42 0c11 0 20-10 20-21l0-63c0-22-19-41-41-41l-500 0c-23 0-42 18-42 41l0 667c0 23 19 42 42 42l62 0c12 0 21-10 21-21l0-42c0-11-9-21-21-21l-21 0 0-583 417 0z m167 167l-417 0 0 583 146 0 0-188c0-46 37-83 83-83l188 0 0-312z m-15 396l-173 0c0 0 0 108 0 175l173-175z m83 35l-219 221c-8 8-24 14-35 14l-273 0c-23 0-41-18-41-41l0-709 542 1c22 0 41 19 41 42l0 437c0 11-7 27-15 35z" horiz-adv-x="1000" />

<glyph glyph-name="done" unicode="&#xe82f;" d="M500-67c-230 0-417 187-417 417 0 230 187 417 417 417 230 0 417-187 417-417 0-230-187-417-417-417z m0 84c184 0 333 149 333 333 0 184-149 333-333 333-184 0-333-149-333-333 0-184 149-333 333-333z m-92 179l-125 125c-16 16-16 42 0 59 16 16 43 16 59 0l96-97 199 201c17 16 43 16 59 0 16-17 16-43 0-59l-229-229c-16-17-43-17-59 0z" horiz-adv-x="1000" />

<glyph glyph-name="doucment-processed" unicode="&#xe830;" d="M83 767l0-667c0 0 85 0 185 0-12 33-18 68-18 104 0 116 63 217 157 271l-74 0c-23 0-41 19-41 42l0 250-209 0z m500-209l-208 0 0 209 208-209z m84 13c0 11-7 27-15 35l-229 229c-8 8-24 15-35 15l-305 0c-46 0-83-37-83-83l0-667c0-46 37-83 83-83l230 0c57-76 147-125 250-125 172 0 312 140 312 312 0 136-87 252-208 295l0 72z m125-367c0-126-103-229-229-229-127 0-230 103-230 229 0 127 103 229 230 229 126 0 229-102 229-229z m-156 112l-122-134-25 27c-15 17-42 18-59 3-17-16-18-42-2-59l55-60c16-18 45-18 61 0l153 166c16 17 15 44-2 59-17 16-43 15-59-2z" horiz-adv-x="1000" />

<glyph glyph-name="ecg" unicode="&#xe831;" d="M818 392c10 28 15 56 15 83 0 92-74 167-166 167-42 0-81-16-111-43l-40-36c-9-7-23-7-31 0l-41 36c-30 27-69 43-111 43-92 0-166-75-166-167 0-27 5-55 15-83l87 0 71 106c18 27 58 24 72-4l93-186 44 65c7 12 20 19 34 19l235 0z m-42-84l-170 0-71-106c-18-27-58-24-72 4l-93 186-44-65c-7-12-20-19-34-19l-67 0c57-86 152-175 275-255 124 81 220 169 276 255z m-276 353c44 40 103 64 167 64 138 0 250-112 250-250 0-201-209-396-399-510-10-6-26-6-36 0-191 114-399 309-399 510 0 138 112 250 250 250 64 0 123-24 167-64z" horiz-adv-x="1000" />

<glyph glyph-name="edit" unicode="&#xe832;" d="M88-17l13 150c2 19 11 37 25 51l544 545c33 32 86 32 118 0l91-91c32-32 32-85 0-118l-545-545c-14-13-32-22-51-24l-150-13c-23-2-43 15-45 38 0 2 0 5 0 7z m100 138l83-83 417 416-84 84-416-417z" horiz-adv-x="1000" />

<glyph glyph-name="email" unicode="&#xe833;" d="M917 350l0-62c0-81-66-146-146-146-50 0-95 25-121 64-38-40-91-64-150-64-115 0-208 93-208 208 0 115 93 208 208 208 115 0 208-93 208-208l0-63c0-34 28-62 63-62 34 0 62 28 62 63l0 62c0 184-149 333-333 333-184 0-333-149-333-333 0-184 149-333 333-333 23 0 42-19 42-42 0-23-19-42-42-42-230 0-417 187-417 417 0 230 187 417 417 417 230 0 417-187 417-417z m-292 0c0 69-56 125-125 125-69 0-125-56-125-125 0-69 56-125 125-125 69 0 125 56 125 125z" horiz-adv-x="1000" />

<glyph glyph-name="evening" unicode="&#xe834;" d="M458-25c0-23 19-42 42-42 23 0 42 19 42 42l0 83c0 23-19 42-42 42-23 0-42-18-42-42l0-83z m282 75c16-17 43-17 60 0 17 17 17 44 0 60l-60 61c-17 17-44 17-61 0-16-17-17-44 0-61l61-60z m135 258c23 0 42 19 42 42 0 23-19 42-42 42l-83 0c-23 0-42-19-42-42 0-23 19-42 42-42l83 0z m-667 0c23 0 42 19 42 42 0 23-18 42-42 42l-83 0c-23 0-42-19-42-42 0-23 19-42 42-42l83 0z m-8-198c-17-16-17-43 0-60 17-17 44-17 60 0l61 60c17 17 17 44 0 61-17 16-44 17-61 0l-60-61z m508 240c0 23-18 42-41 42-23 0-42-19-42-42 0-69-56-125-125-125-69 0-125 56-125 125 0 23-19 42-42 42-23 0-41-19-41-42 0-115 93-208 208-208 115 0 208 93 208 208z" horiz-adv-x="1000" />

<glyph glyph-name="event" unicode="&#xe835;" d="M833 600c0 23-18 42-41 42 0-23-19-42-42-42-23 0-42 19-42 42l-83 0c0-23-18-42-42-42-23 0-41 19-41 42l-84 0c0-23-18-42-41-42-23 0-42 19-42 42l-83 0c0-23-19-42-42-42-23 0-42 19-42 42-23 0-41-19-41-42l0-83 666 0 0 83z m-666-167l0-375c0-23 18-41 41-41l584 0c23 0 41 18 41 41l0 375-666 0z m750 167l0-542c0-69-56-125-125-125l-584 0c-69 0-125 56-125 125l0 542c0 69 56 125 125 125l0 42c0 23 19 41 42 41 23 0 42-18 42-41l0-42 83 0 0 42c0 23 19 41 42 41 23 0 41-18 41-41l0-42 84 0 0 42c0 23 18 41 41 41 23 0 42-18 42-41l0-42 83 0 0 42c0 23 19 41 42 41 23 0 42-18 42-41l0-42c69 0 125-56 125-125z m-584-250c-46 0-83-37-83-83 0-46 37-84 83-84 46 0 84 38 84 84 0 46-38 83-84 83z" horiz-adv-x="1000" />

<glyph glyph-name="exercise" unicode="&#xe836;" d="M558 249c-21-9-45 1-55 22-9 21 1 46 22 55l124 53c-4 11-9 22-14 34l-139-60c-21-9-46 1-55 22-9 21 1 46 22 55l138 59c-18 41-31 72-31 72 0 0-96-41-118-45-30-5-58-3-84 9-66 31-84 71-93 154 0 0-116-117-138-143-20-25-15-71 17-110 17-20 388-411 389-412 8-9 29-19 41-19 2 0 203 0 250 0 26 0 50 37 37 67-4 10-131 140-132 141-13 12-28 32-35 48-1 3-16 38-21 52l-125-54z m-468 123c-56 67-66 159-17 218 24 29 161 165 178 178 13 9 23 15 34 18 25 6 53-4 61-33 4-11 10-50 12-65 6-56 13-71 46-87 8-4 19-5 32-2 14 2 103 41 121 45 36 7 67-5 85-40 13-27 138-317 139-320 2-4 9-14 13-17 1-1 139-156 150-176 45-83-26-179-110-179-47 0-248 0-251 0-34 0-76 19-100 43-1 1-374 394-393 417z m-48-418c0 23 18 42 41 42l251 0c22 0 41-19 41-42 0-23-19-42-41-42l-251 0c-23 0-41 19-41 42z m0 167c0 23 18 42 41 42l84 0c23 0 41-19 41-42 0-23-18-42-41-42l-84 0c-23 0-41 19-41 42z" horiz-adv-x="1000" />

<glyph glyph-name="export-data" unicode="&#xe837;" d="M412 123l47-47 0 399c0 23 18 41 41 41 23 0 42-18 42-41l0-399 46 47c17 16 43 16 60 0 16-17 16-43-1-59l-117-118c-8-8-19-12-30-12-10 0-21 4-29 12 0 0-118 118-118 118-16 16-16 42 0 59 16 16 43 16 59 0z m359 60l-104 0c-23 0-42 19-42 42 0 23 19 42 42 42l104 0c57 0 104 46 104 104 0 57-47 104-104 104l-60 0-5 35c-17 99-104 173-206 173-102 0-189-74-205-173l-6-35-60 0c-57 0-104-47-104-104 0-58 47-104 104-104l104 0c23 0 42-19 42-42 0-23-19-42-42-42l-104 0c-103 0-187 84-187 188 0 101 79 183 179 187 19 97 136 209 279 209 131 0 244-88 280-210 92 0 178-83 178-186 0-104-84-188-187-188z" horiz-adv-x="1000" />

<glyph glyph-name="failed-filled-16" unicode="&#xe838;" d="M500-150c-276 0-500 224-500 500 0 276 224 500 500 500 276 0 500-224 500-500 0-276-224-500-500-500z m12 577l-155 155c-25 24-64 24-89 0-24-25-24-64 0-89l155-154-155-155c-24-25-24-64 0-88 25-25 64-25 89-1l155 155 154-155c25-24 64-24 89 1 24 24 24 63 0 88l-155 155 155 154c24 25 24 64 0 89-25 24-64 24-89 0l-154-155z" horiz-adv-x="1000" />

<glyph glyph-name="failed-outline" unicode="&#xe839;" d="M500 409l103 103c17 16 43 16 59 0 16-16 16-43 0-59l-103-103 103-103c16-16 16-43 0-59-16-16-42-16-59 0l-103 103-103-103c-16-16-43-16-59 0-16 16-16 43 0 59l103 103-103 103c-16 16-16 43 0 59 16 16 43 16 59 0l103-103z m0-476c-230 0-417 187-417 417 0 230 187 417 417 417 230 0 417-187 417-417 0-230-187-417-417-417z m0 84c184 0 333 149 333 333 0 184-149 333-333 333-184 0-333-149-333-333 0-184 149-333 333-333z" horiz-adv-x="1000" />

<glyph glyph-name="feedback" unicode="&#xe83a;" d="M250 204c-115 0-208 94-208 209 0 115 93 208 208 208l362 0 163 129c45 36 100 9 100-49l0-205c46 0 83-37 83-83 0-46-37-84-83-84l0-206c0-58-55-84-100-49l-165 130-57 0 49-199c12-49-21-92-72-92l-125 0c-42 0-82 31-92 72l-54 219-9 0z m144-199c1-3 8-9 11-9l114 0-52 208-122 0 49-199z m-81 366c-23 0-42 18-42 42 0 23 18 41 42 41l145 0 0 84-208 0c-69 0-125-56-125-125 0-69 56-125 125-125l208 0 0 83-145 0z m479 285l-141-110c-8-5-17-8-26-8l-83 0 0-250 83 0c9 0 19-4 26-9l141-112 0 243c0 1 0 2 0 3 0 0 0 1 0 2l0 241z" horiz-adv-x="1000" />

<glyph glyph-name="file-error" unicode="&#xe83b;" d="M83 767l0-667c0 0 85 0 185 0-12 33-18 68-18 104 0 116 63 217 157 271l-74 0c-23 0-41 19-41 42l0 250-209 0z m500-209l-208 0 0 209 208-209z m84 13c0 11-7 27-15 35l-229 229c-8 8-24 15-35 15l-305 0c-46 0-83-37-83-83l0-667c0-46 37-83 83-83l230 0c57-76 147-125 250-125 172 0 312 140 312 312 0 136-87 252-208 295l0 72z m125-367c0-126-103-229-229-229-127 0-230 103-230 229 0 127 103 229 230 229 126 0 229-102 229-229z m-126 44c16 17 16 43 0 59-17 17-43 17-59 0l-44-44-45 44c-16 17-42 17-59 0-16-16-16-42 1-59l44-44-44-44c-17-16-17-43-1-59 17-16 43-16 59 0l45 44 44-44c16-16 42-16 59 0 16 16 16 43 0 59l-45 44 45 44z" horiz-adv-x="1000" />

<glyph glyph-name="flash-off" unicode="&#xe83c;" d="M459 615l-245-286 119 0c23 0 42-18 42-41l0-202 245 285-120 0c-23 0-42 19-42 42l1 202z m317-482l59 59c16 16 43 16 59 0 16-16 16-43 0-59l-59-59 59-59c16-16 16-43 0-59-16-16-43-16-59 0l-59 59-59-59c-16-16-43-16-59 0-16 16-16 43 0 59l59 59-59 59c-16 16-16 43 0 59 16 16 43 16 59 0l59-59z m-234 321l176 0c46 0 59-28 29-63l-374-435c-45-53-81-39-81 30l0 260-177 0c-46 0-59 28-29 63l374 435c45 53 82 39 82-30l0-260z" horiz-adv-x="1000" />

<glyph glyph-name="flash-on" unicode="&#xe83d;" d="M542 615l-245-286 120 0c23 0 41-18 41-41l0-202 246 285-121 0c-23 0-41 19-41 42l0 202z m83-161l176 0c46 0 59-28 29-63l-373-435c-45-53-82-39-82 30l0 260-176 0c-46 0-59 28-29 63l374 435c45 53 81 39 81-30l0-260z" horiz-adv-x="1000" />

<glyph glyph-name="folder-default" unicode="&#xe83e;" d="M125 58l750 0 0 459-375 0c-28 0-54 14-70 37l-55 88-250 0 0-584z m-83 584c0 46 37 83 83 83l252 0c23 0 52-16 64-35l59-90 375 0c46 0 83-37 83-83l0-459c0-46-37-83-83-83l-750 0c-46 0-83 37-83 83l0 584z" horiz-adv-x="1000" />

<glyph glyph-name="folder-secured" unicode="&#xe83f;" d="M583 267c0 57 47 104 105 104 57 0 104-47 104-104l0-42c23 0 41-18 41-42l0-83c0-23-18-42-41-42l-208 0c-24 0-42 19-42 42l0 83c0 23 18 42 41 42l0 42z m84-42l41 0 0 42c0 11-9 21-20 21-12 0-21-10-21-21l0-42z m333-21c0-172-140-312-312-312-120 0-225 67-277 166l-286 0c-46 0-83 38-83 84l0 583c0 46 37 83 83 83l252 0c23 0 52-15 64-34l59-91 375 0c46 0 83-37 83-83l0-240c27-46 42-99 42-156z m-125 396l-375 0c-28 0-54 14-70 38l-55 87-250 0 0-583c0 0 116 0 256 0-4 20-6 41-6 62 0 173 140 313 313 313 70 0 135-24 187-63 0 81 0 146 0 146z m-187-625c126 0 229 103 229 229 0 127-103 229-229 229-127 0-230-102-230-229 0-126 103-229 230-229z" horiz-adv-x="1000" />

<glyph glyph-name="food" unicode="&#xe840;" d="M333 354c72 12 125 61 125 158 0 115-74 255-166 255-92 0-167-140-167-255 0-97 53-146 125-158l0-48c-36-10-62-42-62-81l0-208c0-46 37-84 83-84l41 0c46 0 84 38 84 84l0 208c0 39-27 71-63 81l0 48z m313-129l0-208c0-46 37-84 83-84l42 0c46 0 83 38 83 84l0 208c0 39-26 71-62 81l0 50c72 20 125 93 125 179l0 190c0 23-19 42-42 42-23 0-42-19-42-42l0-190c0-7 0-13-1-18l-40 0 0 208c0 23-19 42-42 42-23 0-42-19-42-42l0-208-40 0c-1 5-1 11-1 18l0 190c0 23-19 42-42 42-23 0-42-19-42-42l0-190c0-86 53-159 125-179l0-50c-36-10-62-42-62-81z m-308 414c23-37 37-85 37-127 0-57-25-79-83-79-59 0-84 22-84 79 0 42 14 90 37 127 19 31 37 44 47 44 9 0 28-13 46-44z m-67-414c0 0 0 0 0 0l41 0c1 0 1 0 1 0l0-208c0 0-1 0-1 0l-41 0c0 0 0 0 0 0l0 208z m458 0c0 0 0 0 0 0l42 0c0 0 0 0 0 0l0-208c0 0 0 0 0 0l-42 0c0 0 0 0 0 0l0 208z" horiz-adv-x="1000" />

<glyph glyph-name="gallery" unicode="&#xe841;" d="M42 642c0 46 37 83 83 83l252 0c23 0 52-16 64-35l59-90 375 0c46 0 83-37 83-83l0-459c0-46-37-83-83-83l-750 0c-46 0-83 37-83 83l0 584z m83-584l750 0 0 459-375 0c-28 0-54 14-70 37l-55 88-250 0 0-584z m247 293c10 21 29 24 43 5l60-77c14-18 40-22 59-8l12 8c19 14 44 9 56-10l58-92c12-20 3-35-20-35l-320 0c-23 0-34 17-25 38l77 171z m273-43c-35 0-63 28-63 63 0 34 28 62 63 62 34 0 62-28 62-62 0-35-28-63-62-63z" horiz-adv-x="1000" />

<glyph glyph-name="confirmed-outline" unicode="&#xe842;" d="M500-67c-230 0-417 187-417 417 0 230 187 417 417 417 230 0 417-187 417-417 0-230-187-417-417-417z m0 84c184 0 333 149 333 333 0 184-149 333-333 333-184 0-333-149-333-333 0-184 149-333 333-333z m-92 179l-125 125c-16 16-16 42 0 59 16 16 43 16 59 0l96-97 199 201c17 16 43 16 59 0 16-17 16-43 0-59l-229-229c-16-17-43-17-59 0z" horiz-adv-x="1000" />

<glyph glyph-name="happy" unicode="&#xe846;" d="M500-67c-230 0-417 187-417 417 0 230 187 417 417 417 230 0 417-187 417-417 0-230-187-417-417-417z m0 84c-184 0-333 149-333 333 0 184 149 333 333 333 184 0 333-149 333-333 0-184-149-333-333-333z m-202 207c9-15 25-34 50-53 41-31 92-50 152-50 60 0 111 19 152 50 25 19 41 38 50 53 12 19 6 45-13 57-20 12-46 6-58-14 0-1-20-23-29-30-27-20-61-33-102-33-41 0-74 13-101 33-10 7-29 29-30 30-12 20-38 26-57 14-20-12-26-38-14-57z m77 168c35 0 63 28 63 62 0 35-28 63-63 63-34 0-62-28-62-63 0-34 28-62 62-62z m250 0c35 0 63 28 63 62 0 35-28 63-63 63-34 0-62-28-62-63 0-34 28-62 62-62z" horiz-adv-x="1000" />

<glyph glyph-name="health-check" unicode="&#xe847;" d="M103 308l189 0c16 0 31 10 38 26l24 56 87-202c14-34 62-34 77 0l51 120 181 0c23 0 42 19 42 42 0 23-19 42-42 42l-208 0c-17 0-32-10-39-26l-24-56-86 202c-15 34-63 34-77 0l-52-120-200 0c-15 41-22 82-22 121 0 140 111 254 250 254 62 0 121-23 166-65l42-36 41 36c46 42 105 65 167 65 139 0 250-114 250-254 0-184-161-391-435-573-14-9-32-9-46 0-173 116-303 244-374 368z" horiz-adv-x="1000" />

<glyph glyph-name="health-records" unicode="&#xe848;" d="M458 683l-208 0 0-666 500 0c0 0 0 243 0 375l-250 0c-23 0-42 18-42 41l0 250z m84-208l208 0-208 208 0-208z m-292 292l304 0c12 0 28-7 36-15l229-229c8-8 14-24 14-35l0-471c0-46-37-84-83-84l-500 0c-46 0-83 38-83 84l0 666c0 46 37 84 83 84z m42-625c0 23 18 41 41 41l334 0c23 0 41-18 41-41 0-23-18-42-41-42l-334 0c-23 0-41 19-41 42z m0 125c0 23 19 41 42 41l166 0c23 0 42-18 42-41 0-23-19-42-42-42l-166 0c-24 0-42 19-42 42z" horiz-adv-x="1000" />

<glyph glyph-name="health-report" unicode="&#xe849;" d="M667 808c23 0 41-18 41-41l84 0c46 0 83-37 83-84l0-666c0-46-37-84-83-84l-584 0c-46 0-83 37-83 84l0 666c0 46 37 84 83 84l84 0c0 23 18 41 41 41 23 0 42-18 42-41l83 0c0 23 19 41 42 41 23 0 42-18 42-41l83 0c0 23 19 41 42 41z m-125-125c28 0 57 0 83 0 0-23 19-41 42-41 23 0 41 18 41 41 51 0 84 0 84 0l0-666-584 0 0 666c0 0 33 0 84 0 0-23 18-41 41-41 24 0 42 18 42 41 27 0 55 0 83 0 0-23 19-41 42-41 23 0 42 18 42 41z m-42-583c115 0 208 93 208 208 0 115-93 209-208 209-115 0-208-94-208-209 0-115 93-208 208-208z m42 250l62 0c23 0 42-18 42-42 0-23-19-41-42-41l-62 0 0-63c0-23-19-41-42-41-23 0-42 18-42 41l0 63-62 0c-23 0-42 18-42 41 0 23 19 42 42 42l62 0 0 62c0 24 19 42 42 42 23 0 42-18 42-42l0-62z" horiz-adv-x="1000" />

<glyph glyph-name="height" unicode="&#xe84a;" d="M750 779c23 0 42-18 42-39l0-780c0-21-19-39-42-39l-500 0c-23 0-42 18-42 39l0 780c0 21 19 39 42 39l500 0z m-458-780l416 0 0 702-416 0 0-702z m0 546c0 22 0 59 0 78l214 0c20 0 36-18 36-39 0-22-16-39-36-39l-214 0z m0-312c0 22 0 59 0 78l214 0c20 0 36-17 36-39 0-21-16-39-36-39l-214 0z m0 156c0 33 0 46 0 78l150 0c20 0 37-18 37-39 0-22-17-39-37-39l-150 0z m0-312c0 33 0 47 0 78l150 0c20 0 37-17 37-39 0-21-17-39-37-39l-150 0z" horiz-adv-x="1000" />

<glyph glyph-name="help" unicode="&#xe84b;" d="M500-67c-230 0-417 187-417 417 0 230 187 417 417 417 230 0 417-187 417-417 0-230-187-417-417-417z m0 84c184 0 333 149 333 333 0 184-149 333-333 333-184 0-333-149-333-333 0-184 149-333 333-333z m0 500c-46 0-83-38-83-84 0-23-19-41-42-41-23 0-42 18-42 41 0 92 75 167 167 167 93 0 167-67 167-158 0-50-18-81-55-113-4-3-47-38-49-40-17-14-21-20-21-41 0-23-18-41-41-41-23 0-42 18-42 41 0 49 17 78 52 106-1-1 44 36 47 38 20 18 26 27 26 50 0 43-35 75-84 75z m0-417c-23 0-42 19-42 42 0 23 19 41 42 41 23 0 42-18 42-41 0-23-19-42-42-42z" horiz-adv-x="1000" />

<glyph glyph-name="history" unicode="&#xe84c;" d="M175 426l18 14c19 14 45 10 59-8 13-19 10-45-9-59l-94-71c-18-13-44-10-58 8l-72 95c-14 18-11 44 8 58 18 14 44 10 58-8l9-11c16 68 48 131 96 185 154 171 418 185 589 31 171-154 185-418 31-589-154-171-418-185-589-31-17 16-18 42-3 59 16 17 42 19 59 3 137-123 348-112 471 25 123 137 112 348-25 471-137 123-347 112-471-25-38-42-64-93-77-147z m367-76l125 0c23 0 41-19 41-42 0-23-18-41-41-41l-167 0c-23 0-42 18-42 41l0 209c0 23 19 41 42 41 23 0 42-18 42-41l0-167z" horiz-adv-x="1000" />

<glyph glyph-name="info" unicode="&#xe84d;" d="M500-67c-230 0-417 187-417 417 0 230 187 417 417 417 230 0 417-187 417-417 0-230-187-417-417-417z m0 84c184 0 333 149 333 333 0 184-149 333-333 333-184 0-333-149-333-333 0-184 149-333 333-333z m0 437c-34 0-62 28-62 63 0 34 28 62 62 62 35 0 63-28 63-62 0-35-28-63-63-63z m0-62c23 0 42-19 42-42l0-208c0-23-19-42-42-42-23 0-42 19-42 42l0 208c0 23 19 42 42 42z" horiz-adv-x="1000" />

<glyph glyph-name="insurance" unicode="&#xe84e;" d="M125 683c0 56 53 96 106 80 4-1 11-3 22-5 19-5 40-9 62-14 62-11 124-19 180-19 2 0 2 0 5 0 11 0 22 0 33 1 47 2 98 9 149 18 23 5 45 9 64 14 12 3 20 5 24 6 53 14 105-26 105-81 0-2 0-2 0-14 0-16 0-25 0-40 0-61 0-125 0-184 0-33 0-62 0-90-1-122-58-231-160-317-37-31-79-58-121-77-36-17-69-28-93-28-25 0-59 11-95 28-42 19-83 46-120 77-103 86-160 195-161 318 0 27 0 56 0 89 0 59 0 123 0 184 0 15 0 24 0 40 0 12 0 12 0 14z m375-83c0 0 0-95 0-239 0-96 0-193 0-291 18 4 35 10 50 17 30 14 60 33 88 57 70 58 112 132 112 217 0 73 0 157 0 252 0 2 0 4-1 6-3 11-15 18-26 14l0 0c-76-22-151-33-223-33z" horiz-adv-x="1000" />

<glyph glyph-name="invoice" unicode="&#xe84f;" d="M250 767l0-250-125 0c-23 0-42 18-42 41l0 84c0 69 56 125 125 125l42 0z m-83-167l83 0 0 42c0 23-19 41-42 41-23 0-41-18-41-41l0-42z m83-625l0 792 542 0c62 0 125-46 125-134l0-658c0-31-56-51-84-37l-82 32-66-32c-11-6-25-6-37 0l-65 32-64-32c-12-6-26-6-38 0l-64 32-84-32c-27-14-83 6-83 37z m83 48l65 33c12 6 26 6 37 0l65-34 65 34c11 6 25 6 37 0l65-35 64 35c12 6 26 6 38 0l65-33-1 483 0 133c0 25-18 44-41 44l-466 0c5-13 7-28 7-44l0-616z m209 202c0 23 18 42 41 42l125 0c23 0 42-19 42-42 0-23-18-42-42-42l-125 0c-23 0-41 19-41 42z m-125 167c0 23 18 41 41 41l251 0c22 0 41-18 41-41 0-23-19-42-41-42l-251 0c-23 0-41 19-41 42z m0 166c0 23 18 42 41 42l251 0c22 0 41-18 41-42 0-23-19-41-41-41l-251 0c-23 0-41 18-41 41z" horiz-adv-x="1000" />

<glyph glyph-name="key-private" unicode="&#xe850;" d="M688-150c-173 0-313 140-313 313 0 172 140 312 313 312 172 0 312-140 312-312 0-173-140-313-312-313z m0 83c126 0 229 103 229 230 0 126-103 229-229 229-127 0-230-103-230-229 0-127 103-230 230-230z m-105 292c0 58 47 104 105 104 57 0 104-46 104-104l0-42c23 0 41-18 41-41l0-84c0-23-18-41-41-41l-208 0c-24 0-42 18-42 41l0 84c0 23 18 41 41 41l0 42z m84-42l41 0 0 42c0 12-9 21-20 21-12 0-21-10-21-21l0-42z m115 188c-29 13-61 21-94 21-2 0-4 0-5 0 8 6 15 12 23 20 81 81 80 212-1 294-81 81-213 81-294 0-66-66-78-164-37-243 24-24 24-64 0-88l-96-97c-25-24-64-24-89 0l-106-106 1-88 87-1 15 59c3 11 14 22 26 24l53 11 120 120 67 67c6 6 15 8 23 5 9-4 16-7 22-9 19-6 40-9 60-9-28-20-51-45-68-75-2 1-4 1-6 2l-159-160-53-10c-12-3-23-14-25-25l-10-53-15-15c-8-8-24-14-36-14l-143 0c-23 0-42 19-42 42l0 143c0 12 7 28 15 36l262 262c-26 97-1 205 75 281 114 114 298 113 412-1 108-107 114-278 18-393z m-135 188c-25-25-64-25-89 0-24 24-24 64 0 88 24 24 64 24 88 0 25-24 25-64 1-88z" horiz-adv-x="1000" />

<glyph glyph-name="key-publicons" unicode="&#xe851;" d="M688-150c-173 0-313 140-313 313 0 172 140 312 313 312 172 0 312-140 312-312 0-173-140-313-312-313z m0 83c126 0 229 103 229 230 0 126-103 229-229 229-127 0-230-103-230-229 0-127 103-230 230-230z m96 322c16 16 43 15 59-1 16-17 15-43-2-59l-166-159c-17-16-43-15-59 1l-73 76c-16 16-16 43 1 59 17 16 43 15 59-1l44-46 137 130z m-2 116c-29 13-61 21-94 21-2 0-4 0-5 0 8 6 15 12 23 20 81 81 80 212-1 294-81 81-213 81-294 0-66-66-78-164-37-243 24-24 24-64 0-88l-96-97c-25-24-64-24-89 0l-106-106 1-88 87-1 15 59c3 11 14 22 26 24l53 11 120 120 67 67c6 6 15 8 23 5 9-4 16-7 22-9 19-6 40-9 60-9-28-20-51-45-68-75-2 1-4 1-6 2l-159-160-53-10c-12-3-23-14-25-25l-10-53-15-15c-8-8-24-14-36-14l-143 0c-23 0-42 19-42 42l0 143c0 12 7 28 15 36l262 262c-26 97-1 205 75 281 114 114 298 113 412-1 108-107 114-278 18-393z m-135 188c-25-25-64-25-89 0-24 24-24 64 0 88 24 24 64 24 88 0 25-24 25-64 1-88z" horiz-adv-x="1000" />

<glyph glyph-name="key" unicode="&#xe852;" d="M166 109l1-88 87 0 15 59c3 11 15 22 26 24l53 10 120 120 68 68c6 6 15 8 23 4 9-4 16-7 21-8 72-22 153-5 209 51 81 81 81 213-1 294-81 82-213 82-294 1-65-66-78-165-37-243 25-25 25-64 0-89l-96-96c-24-25-64-25-88 0l-107-107z m241-53l-53-11c-11-2-22-13-25-25l-10-53-15-14c-8-8-24-15-35-15l-144 0c-23 0-41 19-41 42l-1 144c0 11 7 27 15 35l262 262c-26 98-1 206 75 282 114 113 298 113 412-1 114-114 114-298 1-412-76-76-184-101-281-75l-160-159z m323 440c24 25 24 64 0 88-25 25-64 25-89 1-24-25-24-64 1-89 24-24 64-24 88 0z" horiz-adv-x="1000" />

<glyph glyph-name="lab" unicode="&#xe853;" d="M356 183l288 0-61 151 1 99-167 0 0-99-61-151z m-33-83l-33-83 421-1-34 84-354 0z m344 333l0-83 135-339c18-43-6-78-52-78l-500 0c-46 0-69 35-52 78l135 339 0 83-21 0c-23 0-41 19-41 42 0 23 18 42 41 42l376 0c23 0 41-19 41-42 0-23-18-42-41-42l-21 0z m-84 250c-23 0-41 19-41 42 0 23 18 42 41 42 23 0 42-19 42-42 0-23-19-42-42-42z m-145-125c-35 0-63 28-63 63 0 34 28 62 63 62 34 0 62-28 62-62 0-35-28-63-62-63z" horiz-adv-x="1000" />

<glyph glyph-name="legal" unicode="&#xe854;" d="M373 515c-12 16-21 35-27 55-24 89 29 180 118 204 89 24 180-29 204-118 6-22-7-45-29-51-23-6-45 7-51 30-12 44-58 71-102 59-45-12-71-58-59-102 6-25 23-45 46-55 37-2 76-14 111-36 97-60 143-174 97-260-14-26-35-46-60-59 11-15 19-33 24-52 24-89-29-180-118-204-89-24-180 29-204 118-6 22 8 45 30 51 22 6 45-7 51-30 12-44 57-71 102-58 44 11 71 57 59 102-7 25-25 45-48 55-34 3-69 15-101 35-97 60-143 174-97 260 13 24 32 43 54 56z m235-234c23 42-5 111-67 149-61 38-127 29-149-11-22-42 5-111 67-149 62-38 127-29 149 11z" horiz-adv-x="1000" />

<glyph glyph-name="location" unicode="&#xe855;" d="M686 84c-68-80-153-151-186-151-33 0-118 71-186 151-91 108-147 228-147 349 0 184 149 334 333 334 184 0 333-150 333-334 0-121-56-241-147-349z m-214-40c12-11 28-22 28-22 0 0 18 13 28 22 31 25 64 58 94 93 80 95 128 197 128 296 0 138-112 250-250 250-138 0-250-112-250-250 0-99 48-201 128-296 30-35 63-68 94-93z m-97 389c0 69 56 125 125 125 69 0 125-56 125-125 0-69-56-125-125-125-69 0-125 56-125 125z m167 0c0 23-19 42-42 42-23 0-42-19-42-42 0-23 19-41 42-41 23 0 42 18 42 41z" horiz-adv-x="1000" />

<glyph glyph-name="lot-number" unicode="&#xe856;" d="M240 24c23 0 41-18 41-41 0-23-18-42-41-42-93 0-167 75-167 167l0 500c0 92 74 166 167 166 23 0 41-18 41-41 0-23-18-42-41-42-47 0-84-37-84-83l0-500c0-46 37-84 84-84z m502 0c46 0 83 38 83 84l0 500c0 46-37 83-83 83-23 0-42 19-42 42 0 23 19 41 42 41 92 0 167-74 167-166l0-500c0-92-75-167-167-167-23 0-42 19-42 42 0 23 19 41 42 41z m-522 604l83 0 0-518-83 0 0 518z m293 0l84 0 0-518-84 0 0 518z m-166 0l125 0 0-518-125 0 0 518z m291 0l125 0 0-518-125 0 0 518z" horiz-adv-x="1000" />

<glyph glyph-name="lungs" unicode="&#xe857;" d="M500 458l-40-40 0-213c0-53-25-102-68-134l-96-70c-59-44-143-32-187 28-19 27-28 60-25 93 9 91 32 178 66 262 59 142 147 203 255 163 16-6 29-16 38-28l15 15 0 149c0 23 19 42 42 42 23 0 42-19 42-42l0-149 16-16c9 13 23 23 38 29 109 40 196-21 255-163 35-84 57-171 67-262 3-33-6-66-26-93-43-60-127-72-187-28l-95 70c-43 32-68 81-68 134l0 211-42 42z m125-125l0-128c0-26 13-51 34-67l96-70c22-17 54-12 70 10 8 10 11 23 10 35-9 83-29 163-61 239-43 105-90 138-149 116l0-17 113-113c16-16 16-43 0-59-16-16-43-16-59 0l-54 54z m-248 119l0 16c-59 22-106-11-150-116-31-76-51-156-60-239-1-12 2-25 10-35 16-22 48-27 70-10l96 70c21 16 34 41 34 67l0 129-56-55c-16-16-42-16-59 0-16 16-16 43 0 59l115 114z" horiz-adv-x="1000" />

<glyph glyph-name="map-default" unicode="&#xe858;" d="M625 671l-250-62 0-581 250 63 0 580z m83-583l167-55 0 578-167 56 0-579z m-416 524l-167 55 0-579 167-55 0 579z m-250 113c0 28 28 49 55 40l237-80 323 80c7 2 15 2 23 0l250-84c17-5 28-21 28-39l0-667c0-28-27-49-54-40l-237 80-324-80c-7-2-15-2-23 0l-250 84c-17 6-28 21-28 39l0 667z" horiz-adv-x="1000" />

<glyph glyph-name="map-location-marker" unicode="&#xe859;" d="M718 57c-71-88-162-165-197-165-36 0-126 77-198 165-97 119-156 251-156 385 0 202 158 366 354 366 195 0 354-164 354-366 0-134-59-266-157-385z m-197 251c80 0 146 66 146 146 0 81-66 146-146 146-81 0-146-65-146-146 0-80 65-146 146-146z" horiz-adv-x="1000" />

<glyph glyph-name="market-place" unicode="&#xe85a;" d="M378 392c0-23-18-42-40-42-23 0-41 19-41 42l-41 0 0-334 163 0 0 1 0 208c0 23 18 41 40 41l82 0c22 0 40-18 40-41l0-208 0-1 163 0 0 334-41 0c0-23-18-42-41-42-22 0-40 19-40 42l-81 0c0-23-18-42-41-42-22 0-41 19-41 42l-81 0 0 0z m0 83l81 0 0 42c0 23 18 41 41 41 22 0 41-18 41-41l0-42 81 0 0 42c0 23 18 41 40 41 23 0 41-18 41-41l0-42 52 0c35 0 46 16 35 50l-36 117-509 0-35-117c-11-34 1-50 35-50l52 0 0 42c0 23 18 41 41 41 22 0 40-18 40-41l0-42 0 0z m447-65l0-393c0-23-18-42-41-42l-568 0c-23 0-41 19-41 42l0 393c-43 27-62 80-42 141l42 135c7 21 30 39 53 39l544 0c23 0 47-18 53-39l43-135c19-61 0-114-43-141l0 0z" horiz-adv-x="1000" />

<glyph glyph-name="medical-health" unicode="&#xe85b;" d="M833 642l-666 0 0-250 58 0 29 60c16 31 60 31 75 0l35-71 54 189c12 42 73 39 81-3l50-248 36 126c8 27 40 39 63 23l115-76 70 0 0 250z m-83-334c-8 0-16 3-23 7l-77 52-68-237c-12-42-73-39-81 4l-50 248-36-127c-10-36-60-41-77-7l-46 92-5-9c-7-14-21-23-37-23l-83 0 0-250 666 0 0 250-83 0z m-667 334c0 46 38 83 84 83l666 0c46 0 84-37 84-83l0-584c0-46-38-83-84-83l-666 0c-46 0-84 37-84 83l0 584z" horiz-adv-x="1000" />

<glyph glyph-name="medical-id" unicode="&#xe85c;" d="M633 350l43 24 161 90-66 110-204-113 0 226-134 0 0-226-41 23-163 90-66-110 204-114-43-24-161-89 66-111 204 113 0-226 134 0 0 226 41-23 163-90 66 111-204 113z m243-44c39-22 52-72 29-110l-66-111c-22-37-69-49-107-29l-86 48 0-91c0-44-35-80-79-80l-134 0c-44 0-79 36-79 80l0 91-86-48c-38-20-85-8-107 29l-66 111c-23 38-10 88 29 110l80 44-80 44c-39 22-52 72-29 110l66 111c22 37 69 50 107 29l86-48 0 91c0 44 35 80 79 80l134 0c44 0 79-36 79-80l0-91 86 48c38 21 85 8 107-29l66-111c23-38 10-88-29-110l-80-44 80-44z" horiz-adv-x="1000" />

<glyph glyph-name="medications" unicode="&#xe85d;" d="M208 683l0-83 500 0 0 83-500 0z m573-125c7-12 11-26 11-41l0-204c0-6-5-11-11-11-2 0-5 1-7 3l-60 60c-3 4-6 9-6 15l0 137-500 0 0-500 221 0c5 0 11-2 15-6l59-60c4-4 4-11 0-15-2-2-5-3-7-3l-288 0c-46 0-83 38-83 84l0 500c0 15 4 29 11 41-7 13-11 27-11 42l0 83c0 46 37 84 83 84l500 0c46 0 84-38 84-84l0-83c0-15-4-29-11-42z m-357-215c65 65 170 65 235 0l153-153c65-65 65-170 0-235-65-65-171-65-236 0l-152 152c-65 65-65 171 0 236z m135-253l118 118-76 76c-33 33-86 32-118 0-33-33-33-85 0-118l76-76z" horiz-adv-x="1000" />

<glyph glyph-name="memory-sd" unicode="&#xe85e;" d="M625 558c0-23-18-41-42-41-23 0-41 18-41 41l0 125-42 0 0-125c0-23-18-41-42-41-23 0-41 18-41 41l0 125-42 0 0-125c0-23-18-41-42-41-23 0-41 18-41 41l0 125-42 0 0-666 42 0 0 250c0 23 18 41 41 41l334 0c23 0 41-18 41-41l0-250 42 0 0 483-125 124 0-66z m0-333l-250 0 0-208 250 0 0 208z m-458 479c0 35 28 63 62 63l354 0c11 0 22-5 30-12l208-209c8-8 12-18 12-29l0-521c0-35-27-63-62-63l-542 0c-34 0-62 28-62 63l0 708z" horiz-adv-x="1000" />

<glyph glyph-name="menu" unicode="&#xe85f;" d="M875 142l0 0c0 23-19 41-42 41l-666 0c-23 0-42-18-42-41l0 0c0-23 19-42 42-42l666 0c23 0 42 19 42 42z m0 208l0 0c0 23-19 42-42 42l-666 0c-23 0-42-19-42-42l0 0c0-23 19-42 42-42l666 0c23 0 42 19 42 42z m-708 167l666 0c23 0 42 18 42 41l0 0c0 23-19 42-42 42l-666 0c-23 0-42-19-42-42l0 0c0-23 19-41 42-41z" horiz-adv-x="1000" />

<glyph glyph-name="message-filled" unicode="&#xe860;" d="M583 291l233-233-632 0 233 233 54-54c16-16 42-16 59 0l53 54z m292 292l0-466-233 233 233 233z m-517-233l-233-233 0 466 233-233z m157-11c0 0 0 0 0 0-8-8-22-8-30 0l-301 303 632 0-301-303z" horiz-adv-x="1000" />

<glyph glyph-name="message-outline" unicode="&#xe861;" d="M583 291l-53-54c-17-16-43-16-59 0l-54 54-233-233 632 0-233 233z m292 292l-233-233 233-233 0 466z m-517-233l-233 233 0-466 233 233z m142-26l316 318-632 0 316-318z m-375 401l750 0c46 0 83-37 83-83l0-584c0-46-37-83-83-83l-750 0c-46 0-83 37-83 83l0 584c0 46 37 83 83 83z" horiz-adv-x="1000" />

<glyph glyph-name="mind" unicode="&#xe862;" d="M192 633c37 21 103-1 169-47 31 102 86 181 140 181 54 0 109-81 141-185 67 49 136 73 173 51 53-30 50-155 7-288 6 0 12-1 17-2 44-6 76-16 96-34 41-36 24-86-19-129-22-23-51-43-82-59 50-53 75-109 54-146l-2-4c-35-60-191-45-306 21-19 11-37 25-57 45-4 3-12 11-19 17-6-6-14-14-18-17-21-20-38-34-58-45-114-66-270-81-305-21l-2 4c-21 36 3 91 52 143-35 16-66 38-89 62-43 43-60 93-19 129 20 18 52 28 96 34 8 1 16 2 24 3-43 133-45 257 7 287z m-19-372c-17-3-40-9-40-9 0 0 1-4 10-14 23-23 60-45 98-57l-1-1c5 3 10 7 14 10 0 1 0 1-1 2-13 23-26 48-37 73-16-1-34-3-43-4z m618 4c-11-25-23-50-37-73 0-1 0-1 0-1 3-3 7-6 10-8 36 12 71 33 93 55 5 5 11 13 11 13 0 0-13 6-41 10-11 1-23 3-36 4z m-487-142c-32-23-60-48-80-73-10-12-23-32-23-32 0 0 24-2 43 0 46 4 98 20 143 46 3 2 5 4 8 5-35 10-64 27-91 54z m318-59c45-26 97-42 143-46 16-2 41 0 41 0 0 0-8 17-21 32-21 25-49 51-81 74-27-27-56-44-91-54 3-2 6-4 9-6z m-288 348c0 28 3 56 7 84-25 21-49 37-73 48-11 6-30 12-30 12 0 0 0 1-1-7-2-19-1-47 3-78 11-75 40-159 85-237 21-36 40-58 64-72-33 68-55 159-55 250z m84 0c0-74 15-147 41-204 11-24 23-43 34-56 4-5 8-9 8-9 0 0 6 6 8 9 11 12 23 32 34 56 25 57 41 129 41 203 0 73-17 146-44 205-11 24-23 44-34 57-2 2-5 5-5 5 0 0 0 1-5-5-11-13-24-33-35-57-13-27-23-58-30-90 0 0 1-1 1-1l-2-2c-8-36-12-73-12-111z m264-179c45 79 74 163 85 238 5 31 6 59 3 78 0 3-1 7-1 7 0 0-16-5-30-12-25-12-52-30-78-53 4-26 6-53 6-80 0-92-22-185-55-252 27 13 48 36 70 74z" horiz-adv-x="1000" />

<glyph glyph-name="money" unicode="&#xe863;" d="M83 142c-46 0-83 37-83 83l0 417c0 46 37 83 83 83l667 0c46 0 83-37 83-83l0-254c95-20 167-104 167-205 0-115-93-208-208-208-38 0-74 10-104 28-31-18-67-28-105-28-100 0-184 72-204 167l-296 0z m334 166c-69 0-125 56-125 125 0 69 56 125 125 125 69 0 125-56 125-125 0-17-4-33-10-48 17 5 34 7 51 7 38 0 74-10 105-28 19 11 40 19 62 24l0 254-667 0 0-417 296 0c6 31 20 59 38 83z m375-250c69 0 125 56 125 125 0 69-56 125-125 125-13 0-26-2-38-5 24-34 38-75 38-120 0-44-14-85-38-119 12-4 25-6 38-6z m-667 271c0 12 9 21 21 21l83 0c12 0 21-9 21-21l0-41c0-12-9-21-21-21l-83 0c-12 0-21 9-21 21l0 41z m458 250c0 12 10 21 21 21l84 0c11 0 20-9 20-21l0-41c0-12-9-21-20-21l-84 0c-11 0-21 9-21 21l0 41z m0-521c69 0 125 56 125 125 0 69-56 125-125 125-69 0-125-56-125-125 0-69 56-125 125-125z" horiz-adv-x="1000" />

<glyph glyph-name="more-horizontal" unicode="&#xe864;" d="M500 267c-46 0-83 37-83 83 0 46 37 83 83 83 46 0 83-37 83-83 0-46-37-83-83-83z m292 0c-46 0-84 37-84 83 0 46 38 83 84 83 46 0 83-37 83-83 0-46-37-83-83-83z m-584 0c-46 0-83 37-83 83 0 46 37 83 83 83 46 0 84-37 84-83 0-46-38-83-84-83z" horiz-adv-x="1000" />

<glyph glyph-name="more-vertical" unicode="&#xe865;" d="M417 350c0 46 37 83 83 83 46 0 83-37 83-83 0-46-37-83-83-83-46 0-83 37-83 83z m0-292c0 46 37 84 83 84 46 0 83-38 83-84 0-46-37-83-83-83-46 0-83 37-83 83z m0 584c0 46 37 83 83 83 46 0 83-37 83-83 0-46-37-84-83-84-46 0-83 38-83 84z" horiz-adv-x="1000" />

<glyph glyph-name="morning" unicode="&#xe866;" d="M458 517c0 23 19 41 42 41 23 0 42-18 42-41l0-84c0-23-19-41-42-41-23 0-42 18-42 41l0 84z m282-75c16 16 43 16 60 0 17-17 17-44 0-61l-60-60c-17-17-44-17-61 0-16 17-17 43 0 60l61 61z m135-259c23 0 42-18 42-41 0-23-19-42-42-42l-83 0c-23 0-42 19-42 42 0 23 19 41 42 41l83 0z m-667 0c23 0 42-18 42-41 0-23-18-42-42-42l-83 0c-23 0-42 19-42 42 0 23 19 41 42 41l83 0z m-8 198c-17 17-17 44 0 61 17 16 44 16 60 0l61-61c17-16 17-43 0-60-17-17-44-17-61 0l-60 60z m508-239c0-23-18-42-41-42-23 0-42 19-42 42 0 69-56 125-125 125-69 0-125-56-125-125 0-23-19-42-42-42-23 0-41 19-41 42 0 115 93 208 208 208 115 0 208-93 208-208z" horiz-adv-x="1000" />

<glyph glyph-name="mri-scan" unicode="&#xe867;" d="M150 216c54-141 190-241 350-241 160 0 296 100 350 241-84-46-210-74-350-74-140 0-266 28-350 74l0 0z m0 268c84 46 210 74 350 74 140 0 266-28 350-74-54 141-190 241-350 241-160 0-296-100-350-241l0 0z m350-592c-253 0-458 205-458 458 0 253 205 458 458 458 253 0 458-205 458-458 0-253-205-458-458-458z m0 333c112 0 216 20 290 54 32 14 57 31 71 47 11 11 14 18 14 24 0 6-3 13-14 24-14 16-39 33-71 48-74 33-178 53-290 53-112 0-216-20-290-53-32-15-56-32-71-48-10-11-14-18-14-24 0-6 4-13 14-24 15-16 39-33 71-47 74-34 178-54 290-54z" horiz-adv-x="1000" />

<glyph glyph-name="new-folder" unicode="&#xe868;" d="M729 246l63 0c23 0 41-19 41-42 0-23-18-41-41-41l-63 0 0-63c0-23-18-42-41-42-23 0-42 19-42 42l0 63-62 0c-24 0-42 18-42 41 0 23 18 42 42 42l62 0 0 62c0 23 18 42 42 42 23 0 41-19 41-42l0-62z m271-42c0-172-140-312-312-312-120 0-225 67-277 166l-286 0c-46 0-83 38-83 84l0 583c0 46 37 83 83 83l252 0c23 0 52-15 64-34l59-91 375 0c46 0 83-37 83-83l0-240c27-46 42-99 42-156z m-125 396l-375 0c-28 0-54 14-70 38l-55 87-250 0 0-583c0 0 116 0 256 0-4 20-6 41-6 62 0 173 140 313 313 313 70 0 135-24 187-63 0 81 0 146 0 146z m-187-625c126 0 229 103 229 229 0 127-103 229-229 229-127 0-230-102-230-229 0-126 103-229 230-229z" horiz-adv-x="1000" />

<glyph glyph-name="night" unicode="&#xe869;" d="M250 350c0-138 112-250 250-250 93 0 173 50 217 125-3 0-6 0-9 0-184 0-333 149-333 333 0 3 0 6 0 9-75-44-125-124-125-217z m208 208c0-138 112-250 250-250 46 0 89 13 125 34-4-180-152-325-333-325-184 0-333 149-333 333 0 181 145 329 325 333-21-36-34-79-34-125z" horiz-adv-x="1000" />

<glyph glyph-name="noon" unicode="&#xe86a;" d="M708 350c0-115-93-208-208-208-115 0-208 93-208 208 0 115 93 208 208 208 115 0 208-93 208-208z m-250 375c0 23 19 42 42 42 23 0 42-19 42-42l0-83c0-23-19-42-42-42-23 0-42 19-42 42l0 83z m0-667c0 23 19 42 42 42 23 0 42-18 42-42l0-83c0-23-19-42-42-42-23 0-42 19-42 42l0 83z m282 592c16 17 43 17 60 0 17-17 17-44 0-60l-60-61c-17-16-44-17-61 0-16 17-17 44 0 61l61 60z m-480-479c17 17 44 17 61 0 16-17 17-44 0-61l-61-60c-16-17-43-17-60 0-17 17-17 44 0 60l60 61z m615 221c23 0 42-19 42-42 0-23-19-42-42-42l-83 0c-23 0-42 19-42 42 0 23 19 42 42 42l83 0z m-667 0c23 0 42-19 42-42 0-23-18-42-42-42l-83 0c-23 0-42 19-42 42 0 23 19 42 42 42l83 0z m-8 198c-17 16-17 43 0 60 17 17 44 17 60 0l61-60c17-17 17-44 0-61-17-16-44-17-61 0l-60 61z m479-480c-16 17-17 44 0 61 17 16 44 17 61 0l60-61c17-16 17-43 0-60-17-17-44-17-60 0l-61 60z m-304 240c0-69 56-125 125-125 69 0 125 56 125 125 0 69-56 125-125 125-69 0-125-56-125-125z" horiz-adv-x="1000" />

<glyph glyph-name="notifications" unicode="&#xe86b;" d="M250 17c-69 0-125 56-125 125 0 45 25 86 63 108 0 13 0 163 0 163 0 144 96 265 229 301l0 11c0 46 37 83 83 83 46 0 83-37 83-83l0-11c133-36 230-157 230-302l0-162c37-22 62-63 62-108 0-69-56-125-125-125l-125 0c0-69-56-125-125-125-69 0-125 56-125 125l-125 0z m208 0c0-23 19-42 42-42 23 0 42 19 42 42l-84 0z m271 194l0 201c0 127-102 230-229 230-127 0-229-103-229-229l0-202c0-12-9-23-20-26l-11-3c-19-5-32-21-32-40 0-23 19-42 42-42l500 0c23 0 42 19 42 42 0 19-13 35-32 40l-10 3c-12 3-21 14-21 26z" horiz-adv-x="1000" />

<glyph glyph-name="open-in-new" unicode="&#xe86c;" d="M792 583l-387-387c-17-17-43-17-59 0-17 16-17 42 0 59l387 387-108 0c-23 0-42 18-42 41 0 23 19 42 42 42l208 0c23 0 42-19 42-42l0-208c0-23-19-42-42-42-23 0-41 19-41 42l0 108z m0-275c0 23 18 42 41 42 23 0 42-19 42-42l0-250c0-46-37-83-83-83l-584 0c-46 0-83 37-83 83l0 584c0 46 37 83 83 83l250 0c23 0 42-19 42-42 0-23-19-41-42-41l-250 0 0-584 584 0 0 250z" horiz-adv-x="1000" />

<glyph glyph-name="ophthalmologist" unicode="&#xe86d;" d="M745 655l208-360c4-8 6-17 5-25 0-1 0-2 0-3 0-23-18-42-41-42l-42 0 0-62c0-81-65-146-146-146l-42 0c-73 0-134 54-144 125 0 0-85 0-85 0-11-71-72-125-145-125l-42 0c-81 0-146 65-146 146l0 62-32 0c-10-2-21-1-30 5-14 7-21 21-21 35 0 12 3 21 9 29l205 353c7 12 19 20 32 21 15 6 33 3 45-9l59-59c17-16 17-42 0-59-16-16-42-16-59 0l-27 27-150-260 261 0c23 0 41-18 41-41l0-42 84 0 0 42c0 23 18 41 41 41l266 0-152 263-30-30c-17-16-43-16-59 0-17 17-16 43 0 59l59 59c5 6 12 9 19 11 21 12 47 5 59-15z m-537-492c0-35 28-63 63-63l42 0c34 0 62 28 62 63l0 62-167 0 0-62z m417 0c0-35 28-63 62-63l42 0c35 0 63 28 63 63l0 62-167 0 0-62z" horiz-adv-x="1000" />

<glyph glyph-name="other-document" unicode="&#xe86f;" d="M458 683l-208 0 0-666 500 0c0 0 0 243 0 375l-250 0c-23 0-42 18-42 41l0 250z m84-208l208 0-208 208 0-208z m-292 292l304 0c12 0 28-7 36-15l229-229c8-8 14-24 14-35l0-471c0-46-37-84-83-84l-500 0c-46 0-83 38-83 84l0 666c0 46 37 84 83 84z m42-625c0 23 18 41 41 41l334 0c23 0 41-18 41-41 0-23-18-42-41-42l-334 0c-23 0-41 19-41 42z m0 125c0 23 19 41 42 41l166 0c23 0 42-18 42-41 0-23-19-42-42-42l-166 0c-24 0-42 19-42 42z" horiz-adv-x="1000" />

<glyph glyph-name="password" unicode="&#xe870;" d="M417 204c0 46 37 84 83 84 46 0 83-38 83-84 0-31-16-58-41-72l0-32c0-23-19-42-42-42-23 0-42 19-42 42l0 32c-25 14-41 41-41 72z m-167 313c0 138 112 250 250 250 138 0 250-112 250-250l0-104c46 0 83-38 83-84l0-312c0-46-37-84-83-84l-500 0c-46 0-83 37-83 84l0 312c0 46 37 84 83 84l0 104z m83-104l334 0 0 104c0 92-75 166-167 166-92 0-167-74-167-166l0-104z m-83-84l0-312 500 0 0 312-500 0z" horiz-adv-x="1000" />

<glyph glyph-name="pediatrician-filled" unicode="&#xe871;" d="M436 507c101 103 77 150 154 227 80 81 212 80 293-1 81-81 82-213 1-293-77-77-124-53-227-154 92-124 129-239 83-285-39-40-130-18-234 47-12-27-29-52-50-74-96-95-252-94-348 2-97 97-98 253-2 348 23 23 50 41 79 53-55 95-71 176-34 213 46 46 161 9 285-83z m-190-219c-25-6-48-19-66-37-56-56-55-146 1-202 56-56 146-56 201-1 18 18 30 39 37 63-28 23-56 48-83 75-34 34-64 68-90 102z" horiz-adv-x="1000" />

<glyph glyph-name="pediatrician-outline" unicode="&#xe872;" d="M263 255c-45-45-45-117 0-162 45-45 118-45 163 0 13 13 23 28 28 45l-145 146c-17-6-33-15-46-29z m178 252c17-17 24-18 33-14 12 7 28 26 47 57 5 8 9 15 15 26 32 54 37 63 53 79 66 66 172 66 237 0 65-65 65-171 0-237-16-15-25-21-79-53-11-6-19-10-26-15-31-19-50-34-57-47-4-9-3-16 14-33l30-29c49-49 49-129 0-178-50-49-129-49-178 0l-12 12c-9-15-20-29-33-42-77-77-203-77-281 0-78 78-78 204 0 282 13 12 27 23 42 32l-12 12c-49 49-49 129 0 178 49 49 128 49 177 0l30-30z m82-82l73-73c17 25 43 46 81 70 8 5 17 10 28 16 44 26 54 32 62 39 32 33 32 86 0 119-33 33-86 33-119 0-7-8-13-18-39-62-7-11-11-19-16-28-24-38-45-64-70-81z m-171 52c-16 17-43 17-59 0-16-16-16-42 0-59l296-296c16-16 43-16 59 0 17 17 17 43 0 59l-296 296z" horiz-adv-x="1000" />

<glyph glyph-name="performance" unicode="&#xe873;" d="M558 249c-21-9-45 1-55 22-9 21 1 46 22 55l124 53c-4 11-9 22-14 34l-139-60c-21-9-46 1-55 22-9 21 1 46 22 55l138 59c-18 41-31 72-31 72 0 0-96-41-118-45-30-5-58-3-84 9-66 31-84 71-93 154 0 0-116-117-138-143-20-25-15-71 17-110 17-20 388-411 389-412 8-9 29-19 41-19 2 0 203 0 250 0 26 0 50 37 37 67-4 10-131 140-132 141-13 12-28 32-35 48-1 3-16 38-21 52l-125-54z m-468 123c-56 67-66 159-17 218 24 29 161 165 178 178 13 9 23 15 34 18 25 6 53-4 61-33 4-11 10-50 12-65 6-56 13-71 46-87 8-4 19-5 32-2 14 2 103 41 121 45 36 7 67-5 85-40 13-27 138-317 139-320 2-4 9-14 13-17 1-1 139-156 150-176 45-83-26-179-110-179-47 0-248 0-251 0-34 0-76 19-100 43-1 1-374 394-393 417z m-48-418c0 23 18 42 41 42l251 0c22 0 41-19 41-42 0-23-19-42-41-42l-251 0c-23 0-41 19-41 42z m0 167c0 23 18 42 41 42l84 0c23 0 41-19 41-42 0-23-18-42-41-42l-84 0c-23 0-41 19-41 42z" horiz-adv-x="1000" />

<glyph glyph-name="personal-link" unicode="&#xe874;" d="M652 502c17-17 17-44 0-61l-243-243c-17-17-44-17-61 0-17 17-17 44 0 61l243 243c17 17 44 17 61 0z m-304-487c-50-50-132-50-183 0-50 51-50 133 0 183l122 122c17 16 17 44 0 60-17 17-44 17-61 0l-121-121c-84-84-84-220 0-304 84-84 220-84 304 0l121 121c17 17 17 44 0 61-16 17-44 17-60 0l-122-122z m547 426c84 84 84 221 0 304-84 84-220 84-304 0l-121-121c-17-17-17-44 0-61 16-17 44-17 60 0l122 122c50 50 132 50 183 0 50-51 50-133 0-183l-122-122c-17-16-17-44 0-60 17-17 44-17 61 0l121 121z" horiz-adv-x="1000" />

<glyph glyph-name="photo-add" unicode="&#xe875;" d="M875 238c-15 18-38 29-62 29-8 0-15-1-21-3l0 253-111 0c-11 0-24 8-28 19l-43 64-220 0-42-64c-5-11-18-19-29-19l-111 0 0-417 420 0c-2-7-3-14-3-21 0-25 11-47 28-62l-445 0c-46 0-83 37-83 83l0 417c0 46 37 83 83 83l75 0 29 31c13 32 44 52 78 52l220 0c34 0 65-20 77-52l30-31 75 0c46 0 83-37 83-83l0-279z m-542 91c0 92 75 167 167 167 92 0 167-75 167-167 0-92-75-166-167-166-92 0-167 74-167 166z m167 84c-46 0-83-38-83-84 0-46 37-83 83-83 46 0 83 37 83 83 0 46-37 84-83 84z m354-230l0-62 63 0c23 0 41-19 41-42 0-23-18-41-41-41l-63 0 0-63c0-23-18-42-41-42-23 0-42 19-42 42l0 63-62 0c-24 0-42 18-42 41 0 23 18 42 42 42l62 0 0 62c0 23 18 42 42 42 23 0 41-19 41-42z" horiz-adv-x="1000" />

<glyph glyph-name="prescription" unicode="&#xe876;" d="M833 527l0 115-666 0 0-584 198 0c6 0 12-3 16-8l44-58c3-5 2-11-2-15-2-1-4-2-6-2l-250 0c-46 0-84 37-84 83l0 584c0 46 38 83 84 83l666 0c46 0 84-37 84-83l0-167c0-6-5-10-11-10-2 0-4 0-6 2l-58 43c-6 4-9 11-9 17z m84-410l0-59c0-46-38-83-84-83l-58 0c-6 0-10 5-10 10 0 3 1 6 3 8l131 131c4 4 11 4 15 0 2-2 3-5 3-7z m-667 400c0 23 19 41 42 41l250 0c23 0 41-18 41-41 0-23-18-42-41-42l-250 0c-23 0-42 19-42 42z m0-125c0 23 19 41 42 41l125 0c23 0 41-18 41-41 0-23-18-42-41-42l-125 0c-23 0-42 19-42 42z m604 34c65-65 65-170 0-235l-153-153c-65-65-170-65-235 0-66 65-66 171-1 236l153 152c65 65 171 65 236 0z m-135-253l76 77c32 32 32 85 0 117-33 33-86 33-118 0l-76-76 118-118z" horiz-adv-x="1000" />

<glyph glyph-name="qr-code" unicode="&#xe877;" d="M708 392c23 0 42-19 42-42 0-23-19-42-42-42l-208 0c-23 0-42 19-42 42l0 167c0 23 19 41 42 41 23 0 42-18 42-41l0-125 166 0z m125-292l0 125c0 23 19 42 42 42 23 0 42-19 42-42l0-250c0-23-19-42-42-42-23 0-42 19-42 42l0 42-83 0 0-42c0-23-18-42-42-42-23 0-41 19-41 42l0 42-42 0c-23 0-42 18-42 41 0 23 19 42 42 42l42 0 0 42c0 23 18 41 41 41 23 0 42-18 42-41l0-42 83 0z m-750 625c0 23 19 42 42 42l250 0c23 0 42-19 42-42l0-250c0-23-19-42-42-42l-250 0c-23 0-42 19-42 42l0 250z m500 0c0 23 19 42 42 42l250 0c23 0 42-19 42-42l0-250c0-23-19-42-42-42l-250 0c-23 0-42 19-42 42l0 250z m-500-500c0 23 19 42 42 42l250 0c23 0 42-19 42-42l0-250c0-23-19-42-42-42l-250 0c-23 0-42 19-42 42l0 250z m84 458l0-166 166 0 0 166-166 0z m500 0l0-166 166 0 0 166-166 0z m-500-500l0-166 166 0 0 166-166 0z m-84 167c0 23 19 42 42 42 23 0 42-19 42-42 0-23-19-42-42-42-23 0-42 19-42 42z m125 250c0 23 19 42 42 42 23 0 42-19 42-42 0-23-19-42-42-42-23 0-42 19-42 42z m250-375c0 23 19 42 42 42l125 0c23 0 42-19 42-42 0-23-19-42-42-42l-125 0c-23 0-42 19-42 42z m375 125c0 23 19 42 42 42 23 0 42-19 42-42 0-23-19-42-42-42-23 0-42 19-42 42z m-375-375c0 23 19 42 42 42 23 0 42-19 42-42 0-23-19-42-42-42-23 0-42 19-42 42z m-250 375c0 23 19 42 42 42l125 0c23 0 42-19 42-42 0-23-19-42-42-42l-125 0c-23 0-42 19-42 42z m0-250c0 23 19 42 42 42 23 0 42-19 42-42 0-23-19-42-42-42-23 0-42 19-42 42z m500 500c0 23 19 42 42 42 23 0 42-19 42-42 0-23-19-42-42-42-23 0-42 19-42 42z m-250 125c0 23 19 42 42 42 23 0 42-19 42-42l0-83c0-23-19-42-42-42-23 0-42 19-42 42l0 83z" horiz-adv-x="1000" />

<glyph glyph-name="question-mark" unicode="&#xe878;" d="M515 377c5-7 5-7 5-7 1 1 1 1 3 2 3 2 3 2 7 6 10 8 10 8 22 17 19 15 30 24 32 26 31 25 39 40 39 72 0 63-52 108-123 108-68 0-123-53-123-119 0-26-22-47-49-47-27 0-49 21-49 47 0 118 99 214 221 214 125 0 221-87 221-203 0-61-21-100-73-144-4-3-60-48-66-53-27-20-32-31-32-61 0-26-22-47-49-47-27 0-49 21-49 47 0 60 19 97 68 135l-5 7z m-15-381c-34 0-62 28-62 62 0 35 28 63 62 63 35 0 63-28 63-63 0-34-28-62-63-62z" horiz-adv-x="1000" />

<glyph glyph-name="radio-button-empty" unicode="&#xe879;" d="M500 767c-230 0-417-187-417-417 0-230 187-417 417-417 230 0 417 187 417 417 0 230-187 417-417 417l0 0z m0-750c-184 0-333 149-333 333 0 184 149 333 333 333 184 0 333-149 333-333 0-184-149-333-333-333l0 0z" horiz-adv-x="1000" />

<glyph glyph-name="radio-button-filled-alt" unicode="&#xe87a;" d="M83 350c0-230 187-417 417-417 230 0 417 187 417 417 0 230-187 417-417 417-230 0-417-187-417-417z m327-76l-48 47c-16 16-42 16-58 0l0 0c-16-16-16-42 0-58l91-91c16-17 43-17 59 0l275 274c16 16 16 43 0 59l0 0c-16 16-42 16-59 0l-231-231c-8-9-21-9-29 0z" horiz-adv-x="1000" />

<glyph glyph-name="radio-button-filled" unicode="&#xe87b;" d="M500 767c230 0 417-187 417-417 0-230-187-417-417-417-230 0-417 187-417 417 0 230 187 417 417 417z m0-542c69 0 125 56 125 125 0 69-56 125-125 125-69 0-125-56-125-125 0-69 56-125 125-125z" horiz-adv-x="1000" />

<glyph glyph-name="recommended-16" unicode="&#xe87c;" d="M500-150c-276 0-500 224-500 500 0 276 224 500 500 500 276 0 500-224 500-500 0-276-224-500-500-500z m141 221c38-20 75 6 68 49l-28 158c1-2 115 111 115 111 31 29 17 72-26 79l-158 23c1-1-70 143-70 143-19 38-65 38-83 0l-71-144c0 1-158-22-158-22-43-7-57-50-26-79l115-112c-1 1-28-157-28-157-7-43 30-69 68-49l142 74c-2 0 140-74 140-74z" horiz-adv-x="1000" />

<glyph glyph-name="record" unicode="&#xe87d;" d="M556 288l0 62c0 23-18 42-41 42l-42 0c-23 0-42-19-42-42l0-62-62 0c-23 0-42-19-42-42l0-42c0-23 19-41 42-41l62 0 0-63c0-23 19-42 42-42l42 0c23 0 41 19 41 42l0 63 63 0c23 0 42 18 42 41l0 42c0 23-19 42-42 42l-63 0z m-431 229l738 0c46 0 83-38 83-84 0-2 0-4 0-6l-27-378c-5-65-59-116-125-116l-600 0c-66 0-120 51-125 116l-27 378c-3 46 31 86 77 90 2 0 4 0 6 0z m96 208l546 0c36 0 68-23 79-57l14-41c3-10-3-22-13-26-3-1-5-1-7-1l-692 0c-12 0-21 9-21 21 0 2 0 4 1 6l14 41c11 34 43 57 79 57z" horiz-adv-x="1000" />

<glyph glyph-name="referral-letter" unicode="&#xe87e;" d="M474 200c-10 36-16 76-16 116 0 89 76 159 167 159 91 0 167-70 167-159 0-40-6-80-16-116 34-11 68-26 102-45 47-25 77-70 80-119l0-51c0-11-6-21-16-27-86-44-192-66-317-66-125 0-230 22-316 66-11 6-17 16-17 27l0 51c3 49 33 94 80 119 34 19 68 34 102 45z m35-76c-32-10-64-24-97-42-22-11-35-30-37-50l0-13c68-29 152-44 250-44 99 0 182 15 250 44l0 13c-2 20-15 38-37 50-33 18-65 32-97 42-28-40-67-66-116-66-49 0-88 26-116 66z m324 135l0 383-666 0 0-584 62 0c12 0 21-9 21-20l0-42c0-12-9-21-21-21l-62 0c-46 0-84 37-84 83l0 584c0 46 38 83 84 83l666 0c46 0 84-37 84-83l0-404c0-12-10-21-21-21-3 0-7 1-9 2l-42 21c-7 4-12 11-12 19z m-583 258c0 23 19 41 42 41l167 0c22 0 41-18 41-41 0-23-19-42-41-42l-167 0c-23 0-42 19-42 42z m0-125c0 23 19 41 42 41l83 0c23 0 42-18 42-41 0-23-19-42-42-42l-83 0c-23 0-42 19-42 42z m375-250c47 0 83 86 83 174 0 41-36 76-83 76-47 0-83-35-83-76 0-88 36-174 83-174z" horiz-adv-x="1000" />

<glyph glyph-name="remove-fill" unicode="&#xe87f;" d="M500-67c-230 0-417 187-417 417 0 230 187 417 417 417 230 0 417-187 417-417 0-230-187-417-417-417z m-42 459l-146 0c-23 0-41-19-41-42 0-23 18-42 41-42l376 0c23 0 41 19 41 42 0 23-18 42-41 42l-230 0z" horiz-adv-x="1000" />

<glyph glyph-name="request-document" unicode="&#xe880;" d="M617 291l-55-54c-16-16-43-16-60 0l-84 82c-17 16-17 43 0 59 16 16 43 16 60 0l54-53 323 317-812 0c-24 0-43 18-43 41 0 23 19 42 43 42l872 0c47 0 85-37 85-83l0-584c0-46-38-83-85-83l-638 0c-23 0-42 19-42 42 0 23 19 41 42 41 0 0 419 0 578 0l-238 233z m298 292l-237-233 237-233 0 466z m-850-108c0 23 19 42 42 42l213 0c23 0 42-19 42-42 0-23-19-42-42-42l-213 0c-23 0-42 19-42 42z m85-250c0 23 19 42 42 42l128 0c23 0 42-19 42-42 0-23-19-42-42-42l-128 0c-23 0-42 19-42 42z" horiz-adv-x="1000" />

<glyph glyph-name="reset" unicode="&#xe881;" d="M667 433c-23 0-42 19-42 42 0 23 19 42 42 42l70 0c-64 84-140 125-237 125-161 0-292-131-292-292 0-161 131-292 292-292 148 0 271 111 289 256 3 22 24 39 47 36 23-3 39-24 36-47-23-186-182-328-372-328-207 0-375 168-375 375 0 207 168 375 375 375 119 0 215-48 292-143l0 60c0 23 18 41 41 41 24 0 42-18 42-41 0 0 0-167 0-167 0-12-5-22-12-29-8-8-18-13-30-13l-166 0z" horiz-adv-x="1000" />

<glyph glyph-name="retry" unicode="&#xe882;" d="M667 433c92 0 166-74 166-166 0-92-74-167-166-167l-500 0c-23 0-42-19-42-42 0-23 19-41 42-41l500 0c138 0 250 112 250 250 0 138-112 250-250 250l-400 0 96 95c16 17 16 43 0 59-16 16-43 16-59 0l-167-166c-16-17-16-43 0-59l167-167c16-16 43-16 59 0 16 16 16 43 0 59l-96 95 400 0z" horiz-adv-x="1000" />

<glyph glyph-name="rotate" unicode="&#xe883;" d="M479 517c-115 0-208-94-208-209l0-166c0-23-19-42-42-42-23 0-41 19-41 42l0 166c0 161 130 292 291 292l195 0-47 47c-17 16-17 43 0 59 16 16 42 16 59 0l117-118c8-8 12-19 12-29 1-11-4-22-12-30 0 0-117-117-117-117-17-17-43-17-59-1-17 17-17 43 0 59l46 47-194 0z m-41-209c0 23 18 42 41 42l292 0c23 0 42-19 42-42l0-291c0-23-19-42-42-42l-292 0c-23 0-41 19-41 42l0 291z m83-41l0-209 208 0 0 209-208 0z" horiz-adv-x="1000" />

<glyph glyph-name="sad" unicode="&#xe884;" d="M500-67c-230 0-417 187-417 417 0 230 187 417 417 417 230 0 417-187 417-417 0-230-187-417-417-417z m0 84c-184 0-333 149-333 333 0 184 149 333 333 333 184 0 333-149 333-333 0-184-149-333-333-333z m-202 209c-12-20-6-45 14-57 19-12 45-6 57 14 1 0 20 22 30 30 27 20 60 33 101 33 41 0 75-13 102-33 9-8 29-30 29-31 12-19 38-25 58-13 19 12 25 37 13 57-9 14-25 34-50 53-41 31-92 50-152 50-60 0-111-19-152-50-25-19-41-39-50-53z m77 166c35 0 63 28 63 62 0 35-28 63-63 63-34 0-62-28-62-63 0-34 28-62 62-62z m250 0c35 0 63 28 63 62 0 35-28 63-63 63-34 0-62-28-62-63 0-34 28-62 62-62z" horiz-adv-x="1000" />

<glyph glyph-name="search" unicode="&#xe885;" d="M891 18c17-17 17-43 0-59-16-17-42-17-59 0l-226 226c-52-40-118-64-189-64-173 0-313 140-313 312 0 173 140 313 313 313 172 0 312-140 312-313 0-71-24-137-64-189l226-226z m-474 186c126 0 229 103 229 229 0 127-103 230-229 230-127 0-229-103-229-230 0-126 102-229 229-229z" horiz-adv-x="1000" />

<glyph glyph-name="settings" unicode="&#xe886;" d="M641 629l31-18c0 0 92 16 97 17 28 3 58-12 73-36l38-67c14-25 12-58-4-80-4-5-64-77-64-77 0 0 1-5 1-18 0-6-1-18-1-18 0 0 60-72 63-76 17-23 19-56 5-81l-38-67c-15-24-45-39-72-36 0 0-99 17-99 17l-30-18c0 0-33-88-35-93-11-26-39-45-67-45l-78 0c-28 0-56 19-66 44-3 6-36 94-36 94l-31 18c0 0-92-16-97-17-28-3-58 12-72 36l-39 67c-14 25-12 58 4 80 4 5 64 77 64 77 0 0 0 5 0 18 0 6 0 18 0 18 0 0-60 72-63 76-17 23-19 56-5 81l39 67c14 24 44 40 71 36 6-1 99-17 99-17l31 18c0 0 32 88 34 93 11 26 39 45 67 45l78 0c28 0 56-19 67-44 2-6 35-94 35-94z m-69-60l-6 18c-8 28-31 89-33 95-2 3-64 3-66 0-2-6-25-67-33-95l-6-18-18-8c-17-7-33-17-48-28l-15-11-19 4c-28 7-93 18-99 18-4 1-35-53-33-56 4-5 46-56 65-77l14-14-2-19c-2-9-2-19-2-28 0-9 0-18 2-28l2-19-14-14c-19-21-61-72-65-77-2-3 29-57 33-56 6 1 71 11 99 18l19 5 15-12c15-11 31-21 48-28l18-8 6-18c8-27 31-89 33-95 2-3 64-3 66 0 2 6 25 68 33 95l6 18 18 8c17 7 33 17 48 28l15 12 19-5c28-7 93-17 99-18 2 0 35 53 33 56-4 5-46 56-65 77l-14 14 3 19c1 10 1 19 1 28 0 9 0 19-1 28l-3 19 14 14c19 21 61 72 65 77 2 3-29 57-33 56-6 0-71-11-99-18l-19-4-15 11c-15 11-31 21-48 28l-18 8z m-72-344c-69 0-125 56-125 125 0 69 56 125 125 125 69 0 125-56 125-125 0-69-56-125-125-125z m0 83c23 0 42 19 42 42 0 23-19 42-42 42-23 0-42-19-42-42 0-23 19-42 42-42z" horiz-adv-x="1000" />

<glyph glyph-name="share-alt" unicode="&#xe887;" d="M750 392l-83 0c-23 0-42 18-42 41 0 23 19 42 42 42l83 0c46 0 83-37 83-83l0-375c0-46-37-84-83-84l-500 0c-46 0-83 38-83 84l0 375c0 46 37 83 83 83l83 0c23 0 42-19 42-42 0-23-19-41-42-41 0 0-83 0-83 0 0 0 0-375 0-375 0 0 500 0 500 0 0 0 0 375 0 375z m-338 186c-16-17-43-17-59-1-16 17-16 43 0 60 0 0 118 117 118 117 8 8 19 12 29 12 11 0 22-4 30-12l117-117c17-17 17-43 1-60-17-16-43-16-60 1l-46 46 0-482c0-23-19-42-42-42-23 0-41 19-41 42l0 482-47-46z" horiz-adv-x="1000" />

<glyph glyph-name="share-with-doctor" unicode="&#xe888;" d="M250 788c35 0 63-28 63-63l0-85c0-35-29-63-63-63-33 0-60 26-62 58-13-7-21-21-21-36l0-166 375 0 0 166c0 15-9 29-21 36-2-32-30-58-63-58-34 0-62 28-62 63l0 85c0 35 28 63 62 63 35 0 63-28 63-63 59-12 104-64 104-126l0-190c0-128-102-226-229-226l0-129c0-41 44-71 84-50 18 9 98 79 105 85 31 25 58 40 88 44 17 50 64 86 119 86 69 0 125-56 125-126 0-70-56-127-125-127-53 0-99 34-117 81-10-3-22-11-38-24-5-4-93-81-120-95-96-49-204 24-204 126l0 129c-127 1-230 99-230 226l0 190c0 62 45 114 105 124 0 37 28 65 62 65z m-70-439c23-50 74-83 133-83l83 0c60 0 110 33 133 83l-349 0z m612-298c23 0 41 19 41 42 0 23-18 42-41 42-23 0-42-19-42-42 0-23 19-42 42-42z" horiz-adv-x="1000" />

<glyph glyph-name="share-with-user" unicode="&#xe889;" d="M604 767c92 0 167-74 167-164 0-35-6-83-21-129 50-18 90-48 118-87 35-49 49-106 49-162 0-15-9-29-22-36-16-9-44-22-82-35-28-9-56-16-86-22 15-33 23-66 23-94 0-16-9-31-24-38-18-9-50-21-92-34-69-20-143-33-217-33-75 0-148 13-218 33-42 13-73 25-92 34-14 7-24 22-24 38 0 50 24 115 69 165 28 32 62 57 103 75-18 55-26 114-26 155 0 104 84 188 188 188 7 0 14-1 21-1 9 82 80 147 166 147z m-26-489c39-17 72-41 99-70 38 5 75 14 110 25 16 6 32 12 45 18-3 31-13 62-32 87-19 27-47 48-84 60-27-40-63-69-112-69-4 0-8 0-12 1-4-17-8-35-14-52z m26 135c40 0 84 95 84 190 0 44-37 80-84 80-46 0-83-36-83-80 0-5 0-9 0-14 50-34 83-91 83-156 0-6 0-13 0-20 0 0 0 0 0 0z m-390-265c-23-26-38-57-44-84 16-6 34-12 53-18 62-18 128-29 194-29 65 0 131 11 194 29 19 6 36 12 52 18-6 27-21 58-44 84-20 23-45 41-76 54-29-47-70-81-126-81-56 0-98 34-127 81-31-13-56-31-76-54z m203 56c52 0 104 116 104 229 0 58-47 105-104 105-58 0-104-47-104-105 0-113 52-229 104-229z" horiz-adv-x="1000" />

<glyph glyph-name="share" unicode="&#xe88a;" d="M333 350c0-8 0-16-2-24l374-178c22 22 53 35 87 35 69 0 125-56 125-125 0-69-56-125-125-125-69 0-125 56-125 125 0 5 0 10 1 15l-380 181c-21-18-49-29-80-29-69 0-125 56-125 125 0 69 56 125 125 125 31 0 59-11 80-29l380 181c-1 5-1 10-1 15 0 69 56 125 125 125 69 0 125-56 125-125 0-69-56-125-125-125-34 0-65 13-87 35l-374-178c2-8 2-16 2-24z m-125-42c23 0 42 19 42 42 0 23-19 42-42 42-23 0-41-19-41-42 0-23 18-42 41-42z m584 292c23 0 41 19 41 42 0 23-18 41-41 41-23 0-42-18-42-41 0-23 19-42 42-42z m0-583c23 0 41 18 41 41 0 23-18 42-41 42-23 0-42-19-42-42 0-23 19-41 42-41z" horiz-adv-x="1000" />

<glyph glyph-name="shared" unicode="&#xe88b;" d="M750 474l-209 209-291 0c0 0 0-222 0-666 0 0 167 0 500 0 0 0 0 152 0 457z m-171-263l-111 56 111 55c13-9 29-14 46-14 46 0 83 38 83 84 0 46-37 83-83 83-44 0-81-35-83-78l-121-61c-13 9-29 14-46 14-46 0-83-37-83-83 0-46 37-84 83-84 17 0 33 5 46 14l121-60c2-44 39-79 83-79 46 0 83 38 83 84 0 46-37 83-83 83-17 0-33-5-46-14z m-329 556l304 0c12 0 28-7 36-15l229-229c8-8 14-24 14-35l0-471c0-46-37-84-83-84l-500 0c-46 0-83 38-83 84l0 666c0 46 37 84 83 84z" horiz-adv-x="1000" />

<glyph glyph-name="show-pass-off" unicode="&#xe88c;" d="M205-4c-16-16-42-16-59 0-16 17-16 43 1 59l58 59c-12 9-24 18-35 28-76 66-128 149-128 208 0 59 51 142 128 208 90 78 205 125 330 125 79 0 154-19 222-52l73 73c16 16 42 16 59 0 16-17 16-43 0-59l-59-59c12-9 24-18 35-28 77-65 128-149 128-208 0-59-51-142-128-208-90-78-205-125-330-125-79 0-154 19-222 52l-73-73z m295 104c104 0 200 39 276 105 60 51 99 115 99 145 0 30-39 94-99 145-13 11-27 22-41 31l-122-122c8-16 12-35 12-54 0-69-56-125-125-125-19 0-38 4-54 12l-105-105c50-21 103-32 159-32z m-113 196c-8 16-12 35-12 54 0 69 56 125 125 125 19 0 38-4 54-12l105 105c-49 21-103 32-159 32-104 0-200-39-276-105-60-51-99-115-99-145 0-30 40-93 100-145 12-11 26-22 40-31l122 122z" horiz-adv-x="1000" />

<glyph glyph-name="show-pass-on" unicode="&#xe88d;" d="M830 142c-90-78-205-125-330-125-125 0-239 47-330 125-76 66-128 149-128 208 0 59 51 142 128 208 90 78 205 125 330 125 125 0 240-47 330-125 77-65 128-149 128-208 0-59-51-142-128-208z m-605 63c76-66 171-105 275-105 104 0 200 39 276 105 60 51 99 115 99 145 0 30-39 94-99 145-76 66-172 105-276 105-104 0-200-39-276-105-60-51-99-115-99-145 0-30 40-93 100-145z m442 145c0-92-75-167-167-167-92 0-167 75-167 167 0 92 75 167 167 167 92 0 167-75 167-167z m-167 83c-46 0-83-37-83-83 0-46 37-83 83-83 46 0 83 37 83 83l-20 0c-35 0-63 28-63 63l0 20z" horiz-adv-x="1000" />

<glyph glyph-name="sick-note" unicode="&#xe88e;" d="M167 642l0-584 666 0 0 584-666 0z m0 83l666 0c46 0 84-37 84-83l0-584c0-46-38-83-84-83l-666 0c-46 0-84 37-84 83l0 584c0 46 38 83 84 83z m83-208c0-23 19-42 42-42l417 0c22 0 41 19 41 42 0 23-19 41-41 41l-417 0c-23 0-42-18-42-41z m0-125c0-23 19-42 42-42l417 0c22 0 41 19 41 42 0 23-19 41-41 41l-417 0c-23 0-42-18-42-41z m0-209c0-23 19-41 42-41l166 0c23 0 42 18 42 41 0 24-19 42-42 42l-166 0c-23 0-42-19-42-42z m417 0c0-23 18-41 42-41l-1 0c23 0 42 18 42 41 0 24-19 42-42 42l1 0c-23 0-42-19-42-42z" horiz-adv-x="1000" />

<glyph glyph-name="signature" unicode="&#xe88f;" d="M263 614c20-9 0-43-13-64-10-17-119-162-119-262 0-54 20-98 56-125 31-23 72-30 110-19 44 13 81 59 127 116 51 62 118 143 170 143 68 0 69-42 74-75-158-26-225-153-225-223 0-71 60-129 134-129 68 0 179 55 196 254l92 0c28 0 52 23 52 52l0 0c0 29-24 52-52 52l-93 0c-6 69-45 175-168 175-94 0-174-79-206-118-24-31-85-103-95-113-10-13-28-35-46-35-19 0-30 34-15 80 14 45 58 119 77 146 32 48 54 80 54 137 0 90-68 119-105 119-55 0-63-44-63-44-10-21-1-44 21-53 0 0 24-9 37-14z m315-537c-13 0-30 11-30 30 0 25 30 92 119 115-12-112-59-145-89-145l0 0z" horiz-adv-x="1000" />

<glyph glyph-name="sort" unicode="&#xe890;" d="M542 142l0 0c0 23-19 41-42 41l-333 0c-23 0-42-18-42-41l0 0c0-23 19-42 42-42l333 0c23 0 42 19 42 42z m166 208l0 0c0 23-18 42-41 42l-500 0c-23 0-42-19-42-42l0 0c0-23 19-42 42-42l500 0c23 0 41 19 41 42z m-541 167l666 0c23 0 42 18 42 41l0 0c0 23-19 42-42 42l-666 0c-23 0-42-19-42-42l0 0c0-23 19-41 42-41z" horiz-adv-x="1000" />

<glyph glyph-name="star-filled" unicode="&#xe891;" d="M670 2c45-24 89 7 80 57l-32 185c0-2 137 129 137 129 37 35 20 86-31 93l-190 27c2-1-84 167-84 167-23 45-77 45-100 0l-85-168c1 1-189-26-189-26-51-7-68-58-31-93l138-131c-2 2-33-183-33-183-9-50 35-81 80-57l171 87c-2-1 169-87 169-87z" horiz-adv-x="1000" />

<glyph glyph-name="star-half-filled" unicode="&#xe892;" d="M670 2c45-24 89 7 80 57l-32 185c0-2 137 129 137 129 37 35 20 86-31 93l-190 27c2-1-84 167-84 167-23 45-77 45-100 0l-85-168c1 1-189-26-189-26-51-7-68-58-31-93l138-131c-2 2-33-183-33-183-9-50 35-81 80-57l171 87c-2-1 169-87 169-87z m-170 87l-170-87c-45-24-89 7-80 57 0 0 31 185 33 183l-138 131c-37 35-20 86 31 93 0 0 190 27 189 26l85 168c12 23 31 34 50 34l0-605z" horiz-adv-x="1000" />

<glyph glyph-name="surgery" unicode="&#xe893;" d="M775 671c-16 16-43 16-59 0l-235-236c-17-16-17-42 0-58 16-17 42-17 58 0l236 235c16 17 16 43 0 59z m-434-499l-17-57c-2-9-10-15-20-15l-132 2c-5 0-10 5-10 11 0 3 1 5 3 7l232 232c-22 47-14 104 25 142l235 236c49 49 128 49 177 0 49-49 49-128 0-177l-236-235c-38-39-95-47-142-25l-115-121z m-216-155l125 0c23 0 42-19 42-42 0-23-19-42-42-42l-125 0c-23 0-42 19-42 42 0 23 19 42 42 42z m292 0l125 0c23 0 41-19 41-42 0-23-18-42-41-42l-125 0c-23 0-42 19-42 42 0 23 19 42 42 42z m291 0l125 0c23 0 42-19 42-42 0-23-19-42-42-42l-125 0c-23 0-41 19-41 42 0 23 18 42 41 42z" horiz-adv-x="1000" />

<glyph glyph-name="tap" unicode="&#xe894;" d="M756 698c14 14 36 14 50 0 14-14 14-37 0-51l-50-50c-14-14-37-14-51 0-14 14-14 36 0 50l51 51z m124-216c20 0 37-16 37-36 0-20-16-37-37-37l-73 0c-20 0-36 16-36 37 0 20 16 36 36 36l73 0z m-477 165c14-14 14-36 0-50-14-14-36-14-50 0l-51 50c-14 14-14 37 0 51 14 14 37 14 51 0l50-51z m115 125c0 20 16 36 36 36 20 0 37-16 37-36l0-73c0-20-17-37-37-37-20 0-36 17-36 37l0 73z m77-690l-30-29c-16-16-43-16-59 0-16 16-16 43 0 59l30 29c16 17 16 43 0 59-17 16-43 16-59 0l-30-29c-16-17-42-17-59 0-16 16-16 42 0 59l177 176c16 17 16 43 0 59-16 17-43 17-59 0l-366-365c-16-17-42-17-59 0-16 16-16 42 0 59l366 365c49 49 128 49 177 0 49-49 49-128 0-176l-64-64c13-6 24-15 35-25 22-23 34-52 36-81 30-2 59-14 81-37 49-49 49-128 0-177l-88-88c-16-16-43-16-59 0-16 16-16 43 0 59l88 88c17 17 17 43 0 59-16 17-42 17-58 0z" horiz-adv-x="1000" />

<glyph glyph-name="tick-small" unicode="&#xe895;" d="M410 274l-48 47c-16 16-42 16-58 0l0 0c-16-16-16-42 0-58l91-91c16-17 43-17 59 0l275 274c16 16 16 43 0 59l0 0c-16 16-42 16-59 0l-231-231c-8-9-21-9-29 0z" horiz-adv-x="1000" />

<glyph glyph-name="tick" unicode="&#xe896;" d="M360 190l-131 131c-16 16-42 16-58 0l0 0c-16-16-16-42 0-58l175-175c16-16 42-16 59 0l441 441c16 16 16 42 0 59l0 0c-16 16-42 16-58 0l-398-398c-8-8-22-8-30 0z" horiz-adv-x="1000" />

<glyph glyph-name="time" unicode="&#xe897;" d="M500-67c-230 0-417 187-417 417 0 230 187 417 417 417 230 0 417-187 417-417 0-230-187-417-417-417z m0 84c-184 0-333 149-333 333 0 184 149 333 333 333 184 0 333-149 333-333 0-184-149-333-333-333z m42 333l0 167c0 23-19 41-42 41-23 0-42-18-42-41l0-209c0-23 19-41 42-41l167 0c23 0 41 18 41 41 0 23-18 42-41 42l-125 0z" horiz-adv-x="1000" />

<glyph glyph-name="timeline" unicode="&#xe898;" d="M208 767l584 0c69 0 125-56 125-125l0-584c0-69-56-125-125-125l-584 0c-69 0-125 56-125 125l0 584c0 69 56 125 125 125z m63-146c-35 0-63-28-63-63 0-34 28-62 63-62 34 0 62 28 62 62 0 35-28 63-62 63z m187-104l292 0c23 0 42 18 42 41 0 23-19 42-42 42l-292 0c-23 0-41-19-41-42 0-23 18-41 41-41z m-187-104c-35 0-63-28-63-63 0-34 28-62 63-62 34 0 62 28 62 62 0 35-28 63-62 63z m187-105l167 0c23 0 42 19 42 42 0 23-19 42-42 42l-167 0c-23 0-41-19-41-42 0-23 18-42 41-42z m-187-104c-35 0-63-28-63-62 0-35 28-63 63-63 34 0 62 28 62 63 0 34-28 62-62 62z m187-104l292 0c23 0 42 19 42 42 0 23-19 41-42 41l-292 0c-23 0-41-18-41-41 0-23 18-42 41-42z" horiz-adv-x="1000" />

<glyph glyph-name="trackers" unicode="&#xe899;" d="M333 558c-23 0-41-18-41-41l0-334c0-23 18-41 41-41l334 0c23 0 41 18 41 41l0 334c0 23-18 41-41 41l-334 0z m416 53c26-23 43-57 43-94l0-334c0-37-17-71-43-94l-34-134c-9-37-43-63-81-63l-268 0c-38 0-72 26-81 63l-33 134c-27 23-44 57-44 94l0 334c0 37 17 71 44 94l33 134c9 37 43 63 81 63l268 0c38 0 72-26 81-63l34-134z m-115-636l21 83-310 0 21-83 268 0z m0 750l-268 0-21-83 310 0-21 83z m-280-321c0-55 56-122 146-179 90 57 146 123 146 179 0 39-33 71-73 71-18 0-35-6-49-18l-17-15c-4-3-10-3-14 0l-17 15c-14 12-31 18-49 18-40 0-73-32-73-71z" horiz-adv-x="1000" />

<glyph glyph-name="trade-name" unicode="&#xe89a;" d="M618 621l-500 0 0-542 757 0 0 334c-2 0-5 0-7 0l-167 0c-46 0-83 37-83 83l0 125z m-500 83l757 0c46 0 84-37 84-83l0-542c0-46-38-83-84-83l-757 0c-46 0-84 37-84 83l0 542c0 46 38 83 84 83z m91-286c-23 0-41 19-41 42 0 23 18 41 41 41l312 0c23 0 42-18 42-41 0-23-19-42-42-42l-312 0z m0-237c-23 0-41 19-41 42 0 23 18 41 41 41l583 0c23 0 41-18 41-41 0-23-18-42-41-42l-583 0z" horiz-adv-x="1000" />

<glyph glyph-name="trends" unicode="&#xe89b;" d="M470 261c9 4 19 6 30 6 2 0 3 0 5 0l214 334c-7 12-11 26-11 41 0 46 38 83 84 83 46 0 83-37 83-83 0-46-37-84-83-84 0 0-217-337-217-337 5-11 8-24 8-38 0-46-37-83-83-83-46 0-83 37-83 83 0 5 0 9 1 13l-95 77c-10-4-20-6-31-6-46 0-84 37-84 83 0 46 38 83 84 83 46 0 83-37 83-83 0-4 0-8-1-12l96-77z m-303-244l708 0c23 0 42-19 42-42 0-23-19-42-42-42l-750 0c-11 0-22 5-29 12-8 8-13 18-13 30l0 750c0 23 19 42 42 42 23 0 42-19 42-42l0-708z" horiz-adv-x="1000" />

<glyph glyph-name="user" unicode="&#xe89c;" d="M167 142l0-56c14-9 131-69 333-69 202 0 319 60 333 69l0 56c0 72-158 127-170 131-35-63-87-110-163-110-75 0-128 47-163 110-11-4-170-59-170-131z m104 409c0 119 102 216 229 216 127 0 229-97 229-216 0-51-9-128-33-201 84-32 221-83 221-208l0-84c0-46-180-125-417-125-237 0-417 80-417 125l0 84c0 125 137 176 221 208-24 73-33 150-33 201z m229-305c82 0 146 151 146 305 0 72-64 132-146 132-82 0-146-60-146-132 0-154 64-305 146-305z" horiz-adv-x="1000" />

<glyph glyph-name="vaccination-add-entry" unicode="&#xe89d;" d="M490 336l148 148-50 49-148-148 50-49z m-148-148l98 98-147 148-99-98 148-148z m148 443l-148-147 49-50 148 148-49 49z m296 0c13-13 13-35 0-49-14-13-36-13-50 0l-49 49-49-49 49-49c27-27 27-72 0-99l-296-296c-27-27-71-27-98 0l-25 25-25-25c-13-13-35-13-49 0l-74-74c-14-13-35-13-49 1-14 13-14 35 0 49l74 74c-14 13-14 35 0 49l24 25-24 24c-28 28-27 72 0 99l296 296c27 27 71 27 98 0l49-50 50 50-50 49c-13 14-13 36 0 49 14 14 36 14 50 0l148-148z m8-484l125 0c23 0 41-18 41-41 0-23-18-42-41-42l-125 0 0-125c0-23-19-42-42-42-23 0-42 19-42 42l0 125-125 0c-23 0-41 19-41 42 0 23 18 41 41 41l125 0 0 125c0 23 19 42 42 42 23 0 42-19 42-42l0-125z" horiz-adv-x="1000" />

<glyph glyph-name="vaccination-regular" unicode="&#xe89e;" d="M596 266l-58 59 176 177 59-59-177-177z m-176-177l-177 177 118 118 176-177-117-118z m176 530l59-59-176-176-59 59 176 176z m354 0l-177 177c-16 16-42 16-59 0-16-16-16-42 0-59l59-59-59-59-59 59c-32 33-85 33-117 0l-354-353c-33-33-33-86 0-118l29-30-29-29c-16-16-16-43 0-59l-88-88c-17-17-17-43 0-59 16-17 42-17 58 0l89 88c16-16 43-16 59 0l29 30 30-30c32-33 85-33 118 0l353 354c33 32 33 85 0 117l-59 59 59 59 59-59c16-16 43-16 59 0 16 17 16 43 0 59z" horiz-adv-x="1000" />

<glyph glyph-name="vaccination-travel" unicode="&#xe89f;" d="M815 406l59-59c16-16 16-43 0-59l-295-295c-16-16-42-16-59 0l-29 30-30-30c-16-16-42-16-59 0l-59-58c-16-17-42-17-58 0-17 16-17 42 0 58l58 59c-16 17-16 43 0 59l30 30-30 29c-4 5-7 10-9 16-142 20-251 142-251 289 0 161 131 292 292 292 140 0 258-99 285-232 13 3 27-1 37-11l59-59 29 29-29 30c-16 16-16 43 0 59 16 16 43 16 59 0l118-118c16-16 16-43 0-59-17-16-43-16-59 0l-30 29-29-29z m-295-295l30-29 235 236-117 117-236-235 29-30 59-59z m-25 269l53 53-49 0c-1-18-2-36-4-53z m-324 53c12-60 50-111 102-140-12 40-19 88-22 140l-80 0z m0 84l80 0c3 52 10 100 22 140-52-29-90-80-102-140z m408 0c-12 60-50 111-102 140 12-40 19-88 22-140l80 0z m-244-84c2-46 10-89 21-122 6-18 13-32 19-40 7 8 13 22 19 40 11 33 19 76 21 122l-80 0z m0 84l80 0c-2 47-10 89-21 122-6 18-12 32-19 40-6-8-13-22-19-40-11-33-19-75-21-122z" horiz-adv-x="1000" />

<glyph glyph-name="vaccination" unicode="&#xe8a0;" d="M596 266l-58 59 176 177 59-59-177-177z m-176-177l-177 177 118 118 176-177-117-118z m176 530l59-59-176-176-59 59 176 176z m354 0l-177 177c-16 16-42 16-59 0-16-16-16-42 0-59l59-59-59-59-59 59c-32 33-85 33-117 0l-354-353c-33-33-33-86 0-118l29-30-29-29c-16-16-16-43 0-59l-88-88c-17-17-17-43 0-59 16-17 42-17 58 0l89 88c16-16 43-16 59 0l29 30 30-30c32-33 85-33 118 0l353 354c33 32 33 85 0 117l-59 59 59 59 59-59c16-16 43-16 59 0 16 17 16 43 0 59z" horiz-adv-x="1000" />

<glyph glyph-name="warning-circle-filled" unicode="&#xe8a1;" d="M500-67c-230 0-417 187-417 417 0 230 187 417 417 417 230 0 417-187 417-417 0-230-187-417-417-417z m0 208c-23 0-42 19-42 42 0 23 19 42 42 42 23 0 42-19 42-42 0-23-19-42-42-42z m-42 375c0 24 19 42 42 42 23 0 42-18 42-42l0-208c0-24-19-42-42-42-23 0-42 18-42 42l0 208z" horiz-adv-x="1000" />

<glyph glyph-name="warning-circle-outline" unicode="&#xe8a2;" d="M500 17c184 0 333 149 333 333 0 184-149 333-333 333-184 0-333-149-333-333 0-184 149-333 333-333z m0-84c-230 0-417 187-417 417 0 230 187 417 417 417 230 0 417-187 417-417 0-230-187-417-417-417z m0 208c23 0 42 19 42 42 0 23-19 42-42 42-23 0-42-19-42-42 0-23 19-42 42-42z m-42 375l0-208c0-24 19-42 42-42 23 0 42 18 42 42l0 208c0 24-19 42-42 42-23 0-42-18-42-42z" horiz-adv-x="1000" />

<glyph glyph-name="warning-triangle-filled" unicode="&#xe8a3;" d="M598 678l299-532c50-88 1-171-100-171l-594 0c-101 0-149 83-100 171l299 532c50 89 146 89 196 0z m-98-578c23 0 42 19 42 42 0 23-19 41-42 41-23 0-42-18-42-41 0-23 19-42 42-42z m-42 375l0-208c0-23 19-42 42-42 23 0 42 19 42 42l0 208c0 23-19 42-42 42-23 0-42-19-42-42z" horiz-adv-x="1000" />

<glyph glyph-name="warning-triangle-outline" unicode="&#xe8a4;" d="M598 678l299-532c50-88 1-171-100-171l-594 0c-101 0-149 83-100 171l299 532c50 89 146 89 196 0z m-73-41c-18 33-36 26-50 0l-299-532c-14-27-10-47 27-47l594 0c28 0 46 15 28 47l-300 532z m-25-537c-23 0-42 19-42 42 0 23 19 41 42 41 23 0 42-18 42-41 0-23-19-42-42-42z m-42 375c0 23 19 42 42 42 23 0 42-19 42-42l0-208c0-23-19-42-42-42-23 0-42 19-42 42l0 208z" horiz-adv-x="1000" />

<glyph glyph-name="web" unicode="&#xe8a5;" d="M500-67c-230 0-417 187-417 417 0 230 187 417 417 417 230 0 417-187 417-417 0-230-187-417-417-417z m-331 375c15-118 92-218 198-264-39 70-67 166-74 264l-124 0z m0 84l124 0c6 98 34 194 73 263-105-46-182-145-197-263z m662 0c-15 118-92 217-197 263 39-69 67-165 73-263l124 0z m-198-348c106 46 183 146 198 264l-124 0c-6-98-35-194-74-264z m-203 59c27-54 59-86 70-86 11 0 43 32 70 86 29 59 48 130 54 205l-247 0c5-75 24-146 53-205z m0 494c-29-58-48-130-53-205l247 0c-6 75-25 147-53 205-27 54-59 86-71 86-12 0-43-32-70-86z" horiz-adv-x="1000" />

<glyph glyph-name="weight" unicode="&#xe8a6;" d="M575 359c16 16 43 16 59 0 16-17 16-43 0-59l-21-21c8-16 12-35 12-54 0-69-56-125-125-125-69 0-125 56-125 125 0 69 56 125 125 125 19 0 38-4 54-12l21 21z m175 324l0 42c0 23 19 42 42 42 23 0 41-19 41-42l0-83c0-23-18-42-41-42l-250 0 0-83c161 0 291-131 291-292l0-250c0-23-18-42-41-42l-584 0c-23 0-41 19-41 42l0 250c0 161 130 292 291 292l0 83-250 0c-23 0-41 19-41 42l0 83c0 23 18 42 41 42 23 0 42-19 42-42l0-42 500 0z m-500-458l0-208 500 0 0 208c0 115-93 208-208 208l-84 0c-115 0-208-93-208-208z m250-42c23 0 42 19 42 42 0 23-19 42-42 42-23 0-42-19-42-42 0-23 19-42 42-42z" horiz-adv-x="1000" />

<glyph glyph-name="xray" unicode="&#xe8a7;" d="M208 767l584 0c46 0 83-38 83-84l0-666c0-46-37-84-83-84l-584 0c-46 0-83 38-83 84l0 666c0 46 37 84 83 84z m167-750l0 69c-48 17-83 64-83 118 0 69 56 125 125 125 25 0 48-7 69-21 6-4 11-6 14-6 3 0 8 2 14 6 21 14 45 21 69 21 69 0 125-56 125-125 0-54-34-101-83-118l0-69 167 0 0 666-167 0 0-69c49-17 83-64 83-118 0-69-56-125-125-125-24 0-48 7-69 21-6 4-11 6-14 6-3 0-8-2-14-6-21-14-44-21-69-21-69 0-125 56-125 125 0 54 35 101 83 118l0 69-167 0 0-666 167 0z m167 666l-84 0 0-104c0-23-18-41-41-41-23 0-42-19-42-42 0-23 19-42 42-42 10 0 20 4 27 11 8 6 18 10 28 10l56 0c10 0 20-4 28-10 7-7 17-11 27-11 23 0 42 19 42 42 0 23-19 42-42 42-23 0-41 18-41 41l0 104z m0-666l0 104c0 23 18 42 41 42 23 0 42 18 42 41 0 23-19 42-42 42-10 0-20-4-27-11-8-6-18-10-28-10l-56 0c-10 0-20 4-28 10-7 7-17 11-27 11-23 0-42-19-42-42 0-23 19-41 42-41 23 0 41-19 41-42l0-104 84 0z" horiz-adv-x="1000" />

<glyph glyph-name="add-filled" unicode="&#xe8a8;" d="M500-67c-230 0-417 187-417 417 0 230 187 417 417 417 230 0 417-187 417-417 0-230-187-417-417-417z m42 459l0 146c0 23-19 41-42 41-23 0-42-18-42-41l0-146-146 0c-23 0-41-19-41-42 0-23 18-42 41-42l146 0 0-146c0-23 19-41 42-41 23 0 42 18 42 41l0 146 146 0c23 0 41 19 41 42 0 23-18 42-41 42l-146 0z" horiz-adv-x="1000" />

<glyph glyph-name="organ-donor" unicode="&#xe8a9;" d="M167 475c0-130 127-287 333-422 206 135 333 289 333 422 0 92-74 167-166 167-42 0-81-16-111-43l-40-36c-9-7-23-7-31 0l-41 36c-30 27-69 43-111 43-92 0-166-75-166-167z m333 186c44 40 103 64 167 64 138 0 250-112 250-250 0-201-209-396-399-510-10-6-26-6-36 0-191 114-399 309-399 510 0 138 112 250 250 250 64 0 123-24 167-64z" horiz-adv-x="1000" />

<glyph glyph-name="gender-female" unicode="&#xe8aa;" d="M625 121c23 0 42-19 42-42 0-23-19-41-42-41l-83 0 0-84c0-23-19-42-42-42-23 0-42 19-42 42l0 84-83 0c-23 0-42 18-42 41 0 23 19 42 42 42l83 0 0 86c-141 20-250 142-250 289 0 161 131 292 292 292 161 0 292-131 292-292 0-147-109-269-250-289l0-86 83 0z m-125 167c115 0 208 93 208 208 0 115-93 208-208 208-115 0-208-93-208-208 0-115 93-208 208-208z" horiz-adv-x="1000" />

<glyph glyph-name="gender-both" unicode="&#xe8ab;" d="M771 683c-23 0-42 19-42 42 0 23 19 42 42 42l125 0c23 0 42-19 42-42l0-125c0-23-19-42-42-42-23 0-42 19-42 42l0 24-87-88c29-41 46-91 46-144 0-138-112-250-250-250-46 0-89 12-125 33-26-14-54-25-84-30l0-45 42 0c23 0 42-18 42-42 0-23-19-41-42-41l-42 0 0-42c0-23-18-42-41-42-23 0-42 19-42 42l0 42-42 0c-23 0-41 18-41 41 0 23 18 42 41 42l42 0 0 45c-118 20-208 123-208 247 0 138 111 250 250 250 45 0 88-12 125-34 36 22 79 34 125 34 54 0 104-18 145-47l88 88-25 0z m-458-125c-92 0-167-74-167-166 0-92 75-167 167-167 19 0 38 3 55 10-35 43-55 98-55 157 0 58 20 113 55 157-17 6-36 9-55 9z m83-166c0-42 15-81 42-111 25 30 41 68 41 111 0 42-16 81-41 110-27-30-42-69-42-110z m167 0c0-60-21-115-56-157 17-7 36-10 56-10 92 0 166 75 166 167 0 92-74 166-166 166-20 0-39-3-56-9 35-43 56-98 56-157z" horiz-adv-x="1000" />

<glyph glyph-name="gender-male" unicode="&#xe8ac;" d="M629 421c37-49 59-110 59-175 0-161-131-292-292-292-161 0-292 131-292 292 0 161 131 292 292 292 65 0 126-22 175-59l183 184-150 0c-23 0-41 18-41 41 0 23 18 42 41 42l250 0c12 0 22-5 30-12 7-8 12-18 12-30l0-250c0-23-19-41-42-41-23 0-41 18-41 41l0 150-184-183z m-233-383c115 0 208 93 208 208 0 115-93 208-208 208-115 0-208-93-208-208 0-115 93-208 208-208z" horiz-adv-x="1000" />
</font>
</defs>
</svg>
