<?xml version="1.0" encoding="UTF-8"?>
<svg width="55px" height="45px" viewBox="0 0 55 45" version="1.1" xmlns="http://www.w3.org/2000/svg" xmlns:xlink="http://www.w3.org/1999/xlink">
    <!-- Generator: Sketch 49 (51002) - http://www.bohemiancoding.com/sketch -->
    <title>brand/logo/logo-icon</title>
    <desc>Created with Sketch.</desc>
    <defs>
        <linearGradient x1="50%" y1="30.0328914%" x2="50%" y2="98.3132929%" id="linearGradient-1">
            <stop stop-color="#00E4CD" offset="0%"></stop>
            <stop stop-color="#00B8E4" offset="100%"></stop>
        </linearGradient>
    </defs>
    <g id="document-sharing" stroke="none" stroke-width="1" fill="none" fill-rule="evenodd">
        <g id="brand/logo/logo-icon">
            <g id="logo-icon">
                <path d="M33.0888776,13.6401026 L37.1844519,17.7118344 C39.4564347,19.9666106 43.1476561,19.9666106 45.4176372,17.7118344 C46.5165963,16.619273 47.1231256,15.1645144 47.1231256,13.6182116 C47.1231256,12.0738988 46.5165963,10.6191403 45.4176372,9.5285689 C43.2177173,7.34145586 39.3843718,7.34145586 37.1864536,9.5285689 L33.0888776,13.6401026 Z M27.5060052,45 C26.4610933,45 25.4582181,44.5880506 24.7195734,43.853706 L4.01150095,23.2482753 C1.4232421,20.675084 0,17.256103 0,13.6182116 C0,9.98032018 1.4232421,6.56133911 4.01150095,3.98814789 C6.59775804,1.41495666 10.0367594,0 13.6959528,0 C17.3571481,0 20.7961494,1.41495666 23.3824065,3.98814789 L27.5200175,8.10167168 L31.6015796,4.00207854 C34.2018489,1.41495666 37.6408502,0 41.3020454,0 C44.9612389,0 48.4002402,1.41495666 50.9884991,3.98814789 C53.5747562,6.56133911 55,9.98032018 55,13.6182116 C55,17.256103 53.5747562,20.675084 50.9884991,23.2482753 C45.6458364,28.5578454 36.9562527,28.5578454 31.6155918,23.2482753 L27.5460402,19.2044047 L23.7947663,22.9696621 C22.2654316,24.5080046 19.7712549,24.5199452 18.2259062,22.9975234 C16.6805576,21.4770918 16.6665453,18.9954449 18.1998835,17.4610826 L21.9751783,13.6679639 L17.8135464,9.5285689 C15.6136264,7.34145586 11.7782792,7.34145586 9.58236279,9.5285689 C8.48140195,10.6191403 7.87487262,12.0738988 7.87487262,13.6182116 C7.87487262,15.1645144 8.48140195,16.619273 9.58236279,17.7118344 L27.508007,35.5450646 L32.7625928,30.3190784 C34.2999345,28.7886963 36.796113,28.7886963 38.3334547,30.3190784 C39.8727981,31.8454803 39.8727981,34.3271272 38.3334547,35.8555192 L30.292437,43.853706 C29.5517907,44.5880506 28.5509172,45 27.5060052,45 Z" id="Fill-2" fill="url(#linearGradient-1)" transform="translate(27.500000, 22.500000) scale(-1, 1) translate(-27.500000, -22.500000) "></path>
                <polygon id="Path-2" fill="#20CBF4" points="21.9685059 13.623291 27.5136719 19.2363281 33.0991211 13.623291 27.5136719 8.14599609"></polygon>
            </g>
        </g>
    </g>
</svg>